<svg width="19" height="23" viewBox="0 0 19 23" fill="none" xmlns="http://www.w3.org/2000/svg">
<path d="M15.0343 8.58005C15.0343 5.26495 12.3372 2.56787 9.02212 2.56787C5.70684 2.56787 3.00977 5.26495 3.00977 8.58005C3.00977 11.8953 5.70684 14.5924 9.02212 14.5924C12.3372 14.5924 15.0343 11.8953 15.0343 8.58005ZM9.02212 13.9186C6.0785 13.9186 3.6836 11.5237 3.6836 8.58005C3.6836 5.6366 6.0785 3.2417 9.02212 3.2417C11.9657 3.2417 14.3605 5.6366 14.3605 8.58005C14.3605 11.5237 11.9657 13.9186 9.02212 13.9186Z" fill="black"/>
<path d="M17.9752 19.7258L14.8161 14.1797L15.3695 14.0021C16.0363 13.7884 16.4764 13.1507 16.4399 12.4514L16.398 11.6482C16.3852 11.4052 16.4757 11.1662 16.6465 10.9927L17.2106 10.4194C17.7016 9.92016 17.795 9.15104 17.4377 8.54881L17.0272 7.85725C16.903 7.64791 16.8723 7.39417 16.9427 7.16114L17.1757 6.39132C17.3785 5.72118 17.1038 4.99681 16.5077 4.62971L15.8228 4.20787C15.6155 4.0803 15.4702 3.87008 15.4244 3.6309L15.273 2.84108C15.1412 2.15339 14.5613 1.63959 13.8627 1.59151L13.0602 1.53641C12.8174 1.51974 12.5912 1.40095 12.4396 1.21055L11.9382 0.581471C11.502 0.033984 10.7496 -0.151319 10.1089 0.130672L9.37278 0.454777C9.37278 0.454777 9.37278 0.454777 9.37261 0.454777C9.14993 0.552868 8.89443 0.552868 8.67158 0.454777L7.93545 0.130672C7.29461 -0.151319 6.54235 0.033984 6.10594 0.581646L5.60478 1.21055C5.45316 1.40095 5.22697 1.51974 4.98412 1.53641L4.18166 1.59151C3.48309 1.63959 2.90314 2.15339 2.77136 2.84108L2.61992 3.6309C2.57395 3.8699 2.42883 4.0803 2.22159 4.20787L1.5367 4.62954C0.94061 4.99664 0.665814 5.72118 0.868665 6.39132L1.10152 7.16114C1.17206 7.39417 1.14136 7.64774 1.01712 7.85708L0.606679 8.54881C0.249408 9.15087 0.342762 9.92016 0.833745 10.4192L1.3979 10.9927C1.56847 11.1662 1.65919 11.405 1.64638 11.6481L1.60444 12.4514C1.56794 13.1505 2.00803 13.7882 2.67467 14.0021L3.2283 14.1795L0.069194 19.7258C-0.0262652 19.8934 -0.0227557 20.0994 0.0784943 20.2636C0.179744 20.4279 0.363117 20.524 0.554913 20.5135L3.19531 20.3768L4.42452 22.7178C4.51419 22.8884 4.68967 22.9967 4.88251 22.9998C4.8855 22.9998 4.88848 23 4.89146 23C5.0808 23 5.25593 22.8986 5.34981 22.7336L8.56471 17.0892C8.71352 17.1354 8.86776 17.1594 9.02218 17.1594C9.1766 17.1594 9.33067 17.1354 9.47965 17.0892L12.6946 22.7336C12.7884 22.8986 12.9634 23 13.1527 23C13.1557 23 13.1589 23 13.1618 22.9998C13.3547 22.9967 13.5302 22.8886 13.6198 22.7178L14.8489 20.3768L17.4894 20.5135C17.6828 20.5237 17.8646 20.4277 17.9657 20.2636C18.0669 20.0994 18.0706 19.8934 17.9752 19.7258ZM4.89673 22.1677L3.77719 20.0357L4.43821 18.8754C4.53033 18.7136 4.47401 18.508 4.31222 18.4159C4.15078 18.3239 3.94494 18.3802 3.85282 18.5418L3.1918 19.7023L0.787068 19.8269L3.82316 14.4968C3.88037 14.5608 3.9288 14.6333 3.9653 14.7126L4.30151 15.4435C4.47594 15.8227 4.79039 16.1038 5.16187 16.2433L4.63544 17.1677C4.54332 17.3293 4.59982 17.5351 4.76144 17.6273C4.81408 17.6571 4.87146 17.6713 4.92796 17.6713C5.04501 17.6713 5.15889 17.6102 5.22101 17.5011L5.88764 16.3308C5.91502 16.3275 5.94239 16.3238 5.96977 16.3189L6.76222 16.1805C7.00174 16.1385 7.24987 16.1998 7.44272 16.3482L7.97704 16.7597L4.89673 22.1677ZM9.46017 16.3668C9.45894 16.3675 9.45789 16.3679 9.45684 16.3686C9.45508 16.3696 9.45333 16.3708 9.45157 16.3719C9.18573 16.523 8.85864 16.523 8.59279 16.3719C8.59103 16.3708 8.58946 16.3696 8.58753 16.3686C8.58647 16.3679 8.58542 16.3675 8.58437 16.3668C8.55243 16.3482 8.5212 16.3282 8.49136 16.3052L7.85403 15.8144C7.58257 15.6052 7.24934 15.4936 6.91067 15.4936C6.82258 15.4936 6.73414 15.5014 6.64623 15.5166L5.85378 15.6551C5.80271 15.664 5.75165 15.6681 5.70111 15.6679C5.6969 15.6677 5.69287 15.6675 5.68883 15.6675C5.35981 15.6617 5.05518 15.4692 4.91375 15.1616L4.57754 14.431C4.43382 14.1184 4.18903 13.8645 3.88774 13.7073C3.88704 13.7069 3.88651 13.7064 3.88581 13.7061C3.88388 13.705 3.88195 13.7041 3.88019 13.7033C3.873 13.6996 3.8658 13.6959 3.85861 13.6924C3.85685 13.6915 3.85545 13.6908 3.8537 13.6901C3.78701 13.6573 3.71788 13.629 3.64646 13.606L2.8805 13.3605C2.50481 13.24 2.25668 12.8806 2.27739 12.4867L2.31933 11.6833C2.34179 11.252 2.18105 10.8281 1.87818 10.5203L1.3142 9.94683C1.03747 9.66554 0.98483 9.23211 1.1861 8.89274L1.59654 8.20101C1.81694 7.82953 1.87169 7.37943 1.74657 6.96601L1.51354 6.19619C1.39913 5.81857 1.55408 5.41023 1.89011 5.20352L2.575 4.78168C2.9428 4.55514 3.2004 4.18207 3.28164 3.75777L3.43308 2.96795C3.50731 2.5805 3.83422 2.29096 4.22781 2.26376L5.03027 2.20866C5.46106 2.17901 5.86255 1.96826 6.13173 1.63047L6.63289 1.00156C6.87891 0.692898 7.30286 0.58849 7.66399 0.747472L8.39994 1.0714C8.79529 1.24547 9.2489 1.24547 9.64407 1.0714L10.3802 0.747472C10.7415 0.58849 11.1653 0.692898 11.4111 1.00156L11.9125 1.63064C12.1815 1.96844 12.5831 2.17901 13.0139 2.20866L13.8164 2.26394C14.21 2.29096 14.5369 2.5805 14.6111 2.96795L14.7625 3.75795C14.844 4.18207 15.1016 4.55531 15.4692 4.78168L16.1541 5.20352C16.4901 5.41041 16.6451 5.81857 16.5306 6.19619L16.2976 6.96618C16.1725 7.37943 16.2272 7.82953 16.4476 8.20119L16.8581 8.89274C17.0594 9.23211 17.0069 9.66554 16.73 9.94683L16.166 10.5203C15.8631 10.8281 15.7024 11.252 15.7249 11.6835L15.7668 12.4867C15.7875 12.8806 15.5394 13.24 15.1637 13.3605L14.3977 13.606C14.3263 13.629 14.2572 13.6573 14.1905 13.6899C14.1887 13.6908 14.1872 13.6915 14.1856 13.6922C14.1784 13.6959 14.171 13.6996 14.1638 13.7033C14.1621 13.7043 14.1601 13.705 14.1584 13.7061C14.1577 13.7064 14.1572 13.7068 14.1566 13.7071C13.8552 13.8643 13.6104 14.1184 13.4667 14.431L13.1304 15.1618C12.9892 15.4691 12.6849 15.6616 12.3561 15.6675C12.3513 15.6675 12.3464 15.6677 12.3417 15.6681C12.2915 15.6681 12.2409 15.664 12.1902 15.6551L11.398 15.5166C10.9724 15.4422 10.5322 15.5508 10.19 15.8144L9.55282 16.3052C9.52317 16.3282 9.49193 16.3482 9.46017 16.3668ZM14.8526 19.7023L14.1861 18.5324C14.094 18.3706 13.8881 18.3143 13.7267 18.4064C13.5649 18.4985 13.5086 18.7042 13.6007 18.8659L14.267 20.0357L13.1476 22.1677L10.0673 16.7597L10.6015 16.3482C10.7943 16.1998 11.0424 16.1385 11.2821 16.1805L12.0744 16.3189C12.1018 16.3238 12.1293 16.3275 12.1567 16.3308L12.823 17.5007C12.8851 17.6097 12.999 17.671 13.116 17.671C13.1726 17.671 13.2299 17.6567 13.2826 17.6267C13.4442 17.5346 13.5005 17.3289 13.4086 17.1672L12.8823 16.2433C13.2538 16.1036 13.5683 15.8227 13.7427 15.4435L14.0789 14.7126C14.1154 14.6333 14.1638 14.5608 14.221 14.4968L17.2571 19.8269L14.8526 19.7023Z" fill="black"/>
</svg>
