<svg width="126" height="38" viewBox="0 0 126 38" fill="none" xmlns="http://www.w3.org/2000/svg">
<path d="M116.243 0.157227H9.21483C4.12562 0.157227 0 4.18863 0 9.16163V28.8974C0 33.8704 4.12562 37.9018 9.21483 37.9018H116.243C121.333 37.9018 125.458 33.8704 125.458 28.8974V9.16163C125.458 4.18863 121.333 0.157227 116.243 0.157227Z" fill="#E6E6E6"/>
<path d="M51.1624 12.6943C51.1624 13.2588 50.9913 13.7087 50.6492 14.0439C50.2596 14.4425 49.7531 14.6419 49.1297 14.6419C48.8428 14.6468 48.5577 14.5958 48.2911 14.492C48.0246 14.3881 47.7818 14.2333 47.5771 14.0368C47.3724 13.8403 47.2098 13.6058 47.0988 13.3472C46.9878 13.0886 46.9307 12.811 46.9307 12.5306C46.9307 12.2501 46.9878 11.9725 47.0988 11.7139C47.2098 11.4553 47.3724 11.2209 47.5771 11.0243C47.7818 10.8278 48.0246 10.673 48.2911 10.5692C48.5577 10.4653 48.8428 10.4143 49.1297 10.4193C49.4214 10.4183 49.7102 10.4759 49.9781 10.5886C50.2271 10.6876 50.4489 10.8423 50.6257 11.0402L50.2616 11.396C49.9884 11.0761 49.6111 10.9162 49.1297 10.9162C48.9203 10.9137 48.7124 10.9521 48.5184 11.0292C48.3244 11.1063 48.1481 11.2205 47.9999 11.3651C47.6819 11.6645 47.5232 12.053 47.5236 12.5309C47.5241 13.0087 47.6828 13.3973 47.9999 13.6966C48.3068 13.985 48.716 14.146 49.1418 14.146C49.5676 14.146 49.9768 13.985 50.2838 13.6966C50.4853 13.4997 50.5995 13.228 50.631 12.8775H49.1297V12.3924H51.1335C51.1522 12.492 51.1619 12.593 51.1624 12.6943Z" fill="#5C5C5C"/>
<path d="M54.3401 11.0067H52.4559V12.2879H54.1547V12.7737H52.4559V14.0549H54.3401V14.5512H51.9219V10.5098H54.3401V11.0067Z" fill="#5C5C5C"/>
<path d="M56.5809 14.5512H56.0489V11.0067H54.8936V10.5098H57.7363V11.0067H56.5809V14.5512Z" fill="#5C5C5C"/>
<path d="M59.7905 14.5512V10.5098H60.3219V14.5512H59.7905Z" fill="#5C5C5C"/>
<path d="M62.6789 14.5512H62.1476V11.0067H60.9922V10.5098H63.8343V11.0067H62.6789V14.5512Z" fill="#5C5C5C"/>
<path d="M69.2173 14.0293C68.8144 14.4211 68.2692 14.6411 67.7008 14.6411C67.1325 14.6411 66.5872 14.4211 66.1844 14.0293C65.7931 13.624 65.5752 13.0879 65.5752 12.5308C65.5752 11.9736 65.7931 11.4375 66.1844 11.0322C66.3832 10.8375 66.6193 10.683 66.8793 10.5776C67.1393 10.4722 67.418 10.418 67.6995 10.418C67.981 10.418 68.2597 10.4722 68.5197 10.5776C68.7796 10.683 69.0158 10.8375 69.2146 11.0322C69.6067 11.4366 69.8253 11.9724 69.8253 12.5295C69.8253 13.0865 69.6067 13.6224 69.2146 14.0267L69.2173 14.0293ZM66.5774 13.6906C66.8755 13.9815 67.2795 14.1449 67.7008 14.1449C68.1221 14.1449 68.5262 13.9815 68.8243 13.6906C69.1306 13.3882 69.2838 13.0016 69.2838 12.5308C69.2838 12.0599 69.1306 11.6731 68.8243 11.3703C68.5262 11.0794 68.1221 10.916 67.7008 10.916C67.2795 10.916 66.8755 11.0794 66.5774 11.3703C66.2711 11.6735 66.1179 12.0604 66.1179 12.5308C66.1179 13.0012 66.2704 13.3878 66.5753 13.6906H66.5774Z" fill="#5C5C5C"/>
<path d="M70.5718 14.5512V10.5098H71.2193L73.2292 13.6539H73.252L73.2292 12.8748V10.5117H73.7625V14.5512H73.2077L71.1045 11.2548H71.0816L71.1045 12.0339V14.5512H70.5718Z" fill="#5C5C5C"/>
<path d="M65.4438 20.4464C64.6626 20.4386 63.91 20.7334 63.3506 21.2662C63.0718 21.5447 62.853 21.875 62.7069 22.2375C62.5609 22.6001 62.4906 22.9875 62.5003 23.377C62.51 23.7665 62.5995 24.1501 62.7634 24.5053C62.9273 24.8604 63.1624 25.1799 63.4548 25.4448C63.989 25.901 64.6705 26.159 65.3798 26.1736C66.0892 26.1883 66.7812 25.9586 67.3347 25.5249C67.6684 25.2563 67.9363 24.9181 68.1187 24.5351C68.3011 24.1521 68.3933 23.734 68.3886 23.3115C68.3946 22.9328 68.3224 22.5568 68.1765 22.2058C68.0306 21.8549 67.8138 21.5363 67.5392 21.2689C67.2646 21.0016 66.9377 20.791 66.5781 20.6497C66.2184 20.5083 65.8333 20.4392 65.4458 20.4464H65.4438ZM65.4438 25.0477C64.5551 25.0477 63.7893 24.3316 63.7893 23.3115C63.7893 22.2804 64.5551 21.5754 65.4438 21.5754C66.3325 21.5754 67.0982 22.2804 67.0982 23.3115C67.0982 24.3316 66.3325 25.0477 65.4438 25.0477ZM59.0233 20.4464C58.4404 20.4435 57.8692 20.6065 57.3796 20.9157C56.597 21.4139 56.0805 22.2738 56.0805 23.3115C56.076 23.6926 56.1502 24.0707 56.2986 24.4231C56.447 24.7756 56.6666 25.0952 56.9443 25.3628C57.4579 25.8399 58.1267 26.1256 58.8339 26.1699C59.5412 26.2141 60.2418 26.0142 60.8135 25.605C61.1768 25.3383 61.4706 24.9916 61.671 24.5931C61.8714 24.1946 61.9728 23.7555 61.9669 23.3115C61.9709 22.7943 61.8331 22.2855 61.5679 21.8379C61.0573 20.9846 60.1075 20.4464 59.0233 20.4464ZM59.0233 25.0477C58.1353 25.0477 57.3689 24.3316 57.3689 23.3115C57.3689 22.2804 58.1353 21.5754 59.0233 21.5754C59.9114 21.5754 60.6785 22.2804 60.6785 23.3115C60.6785 24.3316 59.912 25.0477 59.0233 25.0477ZM51.3864 21.326V22.5409H54.3629C54.2742 23.2249 54.0411 23.7225 53.6851 24.071C53.2525 24.4944 52.5747 24.9611 51.3864 24.9611C49.5539 24.9611 48.1211 23.517 48.1211 21.727C48.1211 19.937 49.5539 18.4936 51.3864 18.4936C52.2222 18.4831 53.0285 18.7954 53.63 19.3627L54.5073 18.5054C53.763 17.811 52.7749 17.2793 51.3864 17.2793C50.559 17.2799 49.747 17.4978 49.0353 17.9101C47.6879 18.6886 46.7676 20.109 46.7676 21.7283C46.7676 23.3989 47.747 24.858 49.1643 25.6188C49.8453 25.9855 50.6102 26.1778 51.3878 26.178C52.7426 26.178 53.7643 25.7441 54.5637 24.9309C55.3859 24.1274 55.6385 22.9991 55.6385 22.0874C55.6411 21.8327 55.6186 21.5784 55.5713 21.3279H51.3864V21.326ZM82.622 22.2699C82.3781 21.6299 81.6339 20.4464 80.1124 20.4464C79.4829 20.4431 78.8719 20.6538 78.384 21.0424C77.7546 21.5465 77.3469 22.3407 77.3469 23.3115C77.3469 24.9177 78.5909 26.1767 80.2568 26.1767C80.7392 26.1787 81.2145 26.0638 81.6403 25.8422C82.0661 25.6207 82.429 25.2994 82.6965 24.9072L81.697 24.2561C81.3611 24.7333 80.9084 25.0477 80.2534 25.0477C79.5985 25.0477 79.1316 24.755 78.8321 24.18L82.7523 22.5954L82.622 22.2699ZM78.6245 23.2249C78.5909 22.1182 79.5018 21.5537 80.1567 21.5537C80.6679 21.5537 81.1012 21.8032 81.2449 22.1615L79.8753 22.7169L78.6245 23.2249ZM75.4371 26.0028H76.7248V17.5819H75.4371V26.0028ZM73.3265 21.087H73.2822C72.9934 20.7503 72.4385 20.4464 71.7372 20.4464C71.0556 20.4551 70.4017 20.7113 69.9027 21.1651C69.595 21.4384 69.3491 21.7714 69.1809 22.143C69.0127 22.5146 68.9259 22.9164 68.926 23.3227C68.9261 23.7899 69.0423 24.25 69.2646 24.6636C69.4869 25.0771 69.8087 25.4317 70.2023 25.6969C70.6517 26.005 71.1863 26.1723 71.7352 26.1767C72.4351 26.1767 72.99 25.8728 73.2802 25.5256H73.3245V25.9378C73.3245 27.034 72.7253 27.6201 71.7587 27.6201C70.9708 27.6201 70.4824 27.0668 70.2809 26.6001L69.1598 27.0556C69.4815 27.8151 70.3367 28.7485 71.758 28.7485C73.2688 28.7485 74.5457 27.8807 74.5457 25.7645V20.6203H73.3238L73.3265 21.087ZM71.8487 25.0477C70.96 25.0477 70.2157 24.3211 70.2157 23.3227C70.2157 22.3132 70.96 21.5754 71.8487 21.5754C72.726 21.5754 73.4145 22.3132 73.4145 23.3227C73.4132 24.3211 72.7247 25.0477 71.8474 25.0477H71.8487ZM88.6555 17.5819H85.5716V26.0028H86.8613V22.8127H88.6575C89.0654 22.8144 89.4692 22.7332 89.8434 22.5745C90.2176 22.4157 90.5539 22.1828 90.8312 21.8905C91.2496 21.4258 91.4818 20.8288 91.4848 20.2099C91.4879 19.5909 91.2617 18.9918 90.848 18.5232C90.5703 18.2247 90.2315 17.9866 89.8535 17.8245C89.4756 17.6623 89.0669 17.5797 88.6541 17.5819H88.6555ZM88.6884 21.6404H86.8613V18.7522H88.6904C89.0863 18.7484 89.4676 18.8984 89.7504 19.1692C90.0332 19.44 90.1944 19.8094 90.1984 20.1963C90.1951 20.8501 89.649 21.6404 88.687 21.6404H88.6884ZM96.6383 20.4313C95.7067 20.4313 94.742 20.8324 94.343 21.7205L95.485 22.1865C95.7288 21.7205 96.1836 21.5688 96.6598 21.5688C97.3255 21.5688 98.0033 21.9587 98.0127 22.6519V22.7385C97.5991 22.5238 97.1376 22.4122 96.6692 22.4136C96.1467 22.4092 95.6314 22.5331 95.1706 22.774C94.5929 23.0884 94.1858 23.6056 94.1858 24.3099C94.1837 24.5892 94.2507 24.8649 94.3812 25.1135C94.5116 25.3621 94.7015 25.5762 94.9348 25.7376C95.341 26.0187 95.8276 26.1673 96.3253 26.1623C97.1905 26.1623 97.6688 25.7829 97.9664 25.3391H98.0107V25.9923H99.2527V22.7602C99.2527 21.8727 98.8497 21.2183 98.2142 20.833C97.7803 20.5691 97.2355 20.4313 96.637 20.4313H96.6383ZM96.4825 25.0464C96.0613 25.0464 95.4749 24.8403 95.4749 24.3316C95.4749 23.6811 96.2071 23.4323 96.8392 23.4323C97.4041 23.4323 97.6701 23.5511 98.0141 23.7139C97.9668 24.0797 97.7854 24.4162 97.5035 24.6613C97.2216 24.9063 96.8584 25.0431 96.4812 25.0464H96.4825ZM103.778 20.6151L103.168 22.1248L102.304 24.2646H102.259L100.729 20.6131H99.3421L100.449 23.0746L101.639 25.7179L100.332 28.5568H101.675L104.184 22.923L105.212 20.6151H103.778ZM92.1921 26.0028H93.4785V17.5819H92.1921V26.0028Z" fill="#5C5C5C"/>
<path d="M37.2076 15.5793L26.9637 9.70594C26.7257 9.56937 26.4444 9.52385 26.174 9.57816C25.9037 9.63248 25.6636 9.78277 25.5 10L34.1761 18.5272L37.2076 15.5793Z" fill="#5C5C5C"/>
<path d="M24.8927 26.871C24.8914 27.0932 24.9606 27.3104 25.0908 27.4926L33.7851 19.0389L25.109 10.5117C24.9674 10.6985 24.8915 10.9251 24.8927 11.1576V26.871Z" fill="#5C5C5C"/>
<path d="M37.4398 21.8773L40.9503 19.8635C41.118 19.7673 41.2571 19.6299 41.3538 19.465C41.4504 19.3001 41.5013 19.1133 41.5013 18.9232C41.5013 18.7332 41.4504 18.5464 41.3538 18.3815C41.2571 18.2165 41.118 18.0792 40.9503 17.983L37.4915 16L34.46 19L37.4398 21.8773Z" fill="#5C5C5C"/>
<path d="M25.4609 27.8467C25.6214 28.0726 25.8632 28.2309 26.138 28.2899C26.4127 28.3489 26.7002 28.3044 26.9428 28.1651L37.135 22.3232L34.1552 19.395L25.4609 27.8467Z" fill="#5C5C5C"/>
</svg>
