<svg width="48" height="19" viewBox="0 0 48 19" fill="none" xmlns="http://www.w3.org/2000/svg">
<g clip-path="url(#clip0_1075_2463)">
<path d="M20.3044 10.9565H0V18.9859H20.3044V10.9565Z" fill="#84B740"/>
<path d="M20.3044 0H0V8.03654H20.3044V0Z" fill="#259BD6"/>
<path d="M40.6094 17.3542L40.519 17.3757C40.2055 17.4472 40.0909 17.4759 39.8618 17.4759C39.3313 17.4759 38.7043 17.1538 38.7043 15.6367C38.7043 14.8567 38.8128 13.819 39.8015 13.819H39.8076C39.9764 13.8333 40.1693 13.8548 40.531 13.9836L40.6094 14.0122V17.3542ZM40.7722 9.78999L40.6094 9.82577V12.631L40.4647 12.581L40.4225 12.5666C40.2597 12.5094 39.8859 12.3806 39.5242 12.3806C37.5468 12.3806 37.1309 14.1553 37.1309 15.6439C37.1309 17.6834 38.0954 18.857 39.7774 18.857C40.4888 18.857 41.0133 18.7712 41.5438 18.5636C42.0321 18.3776 42.207 18.1128 42.207 17.5474V9.49658C41.7367 9.59677 41.2484 9.69696 40.7722 9.78999Z" fill="#27292D"/>
<path d="M46.4872 17.4042L46.4028 17.4329L46.1014 17.5259C45.8181 17.6118 45.5649 17.6619 45.3719 17.6619C44.9077 17.6619 44.6304 17.3899 44.6304 16.9248C44.6304 16.6242 44.745 16.1161 45.5046 16.1161H46.4872V17.4042ZM45.7939 12.3447C45.185 12.3447 44.5581 12.4735 43.7804 12.7598L43.274 12.9387L43.4428 14.2984L43.9371 14.1052C44.4556 13.9048 45.1006 13.776 45.5829 13.776C45.8 13.776 46.4631 13.776 46.4631 14.6276V14.9997H45.5407C43.8588 14.9997 43.0811 15.6366 43.0811 17.0035C43.0811 18.17 43.7985 18.8713 45.0042 18.8713C45.378 18.8713 45.8964 18.7854 46.3425 18.6566L46.3667 18.6494L46.3908 18.6566L46.5415 18.6852C47.0117 18.7854 47.5 18.8856 47.9763 18.9929V14.5274C47.9763 13.0818 47.2408 12.3447 45.7939 12.3447Z" fill="#27292D"/>
<path d="M34.7734 17.4042L34.689 17.4329L34.3875 17.5259C34.1042 17.6118 33.857 17.6619 33.6581 17.6619C33.1939 17.6619 32.9165 17.3899 32.9165 16.9248C32.9165 16.6242 33.0311 16.1161 33.7847 16.1161H34.7673L34.7734 17.4042ZM34.0861 12.3447C33.4712 12.3447 32.8502 12.4735 32.0725 12.7598L31.5661 12.9387L31.7349 14.2984L32.2293 14.1052C32.7477 13.9048 33.3928 13.776 33.8751 13.776C34.0921 13.776 34.7553 13.776 34.7553 14.6276V14.9997H33.8329C32.1509 14.9997 31.3672 15.6366 31.3672 17.0035C31.3672 18.17 32.0846 18.8713 33.2964 18.8713C33.6701 18.8713 34.1886 18.7854 34.6347 18.6566L34.6588 18.6494L34.6829 18.6566L34.8276 18.6852C35.3039 18.7854 35.7862 18.8856 36.2624 19.0001V14.5346C36.2685 13.0747 35.533 12.3447 34.0861 12.3447Z" fill="#27292D"/>
<path d="M28.4254 12.3587C27.6597 12.3587 27.0267 12.6593 26.7916 12.7881L26.7313 12.8239L26.6771 12.7738C26.3515 12.4947 25.8753 12.3516 25.2121 12.3516C24.6273 12.3516 24.0787 12.4517 23.4819 12.6593C22.9695 12.8453 22.7705 13.1388 22.7705 13.6898V18.7922H24.3741V14.0762L24.4525 14.0476C24.778 13.9188 24.971 13.8973 25.1578 13.8973C25.6221 13.8973 25.8572 14.1907 25.8572 14.7632V18.7994H27.4367V14.6845C27.4367 14.4412 27.3945 14.2981 27.3884 14.2695L27.3342 14.1478L27.4427 14.0905C27.6838 13.9617 27.9491 13.8973 28.2264 13.8973C28.5459 13.8973 28.9257 14.0476 28.9257 14.7632V18.7994H30.4992V14.5772C30.4992 13.0815 29.824 12.3587 28.4254 12.3587Z" fill="#27292D"/>
<path d="M45.3054 5.23842C45.0702 5.23842 44.6784 5.20979 44.3709 5.13823L44.2805 5.11676V2.36158C44.2805 2.13258 44.2443 1.98945 44.2383 1.96798L44.1901 1.85348L44.2926 1.80339C44.3167 1.78908 44.3408 1.78192 44.3709 1.76761L44.389 1.7533C44.4252 1.73898 44.4613 1.72467 44.4975 1.71036C44.5156 1.7032 44.5277 1.69605 44.5397 1.69605C44.8954 1.58154 45.221 1.59586 45.3656 1.58154H45.3717C46.3543 1.58154 46.4689 2.61921 46.4689 3.39925C46.4629 4.91638 45.8299 5.23842 45.3054 5.23842ZM45.2993 0C45.2873 0 45.2692 0 45.2571 0C44.3348 0 43.3883 0.300565 43.0506 0.887382C42.8698 1.17363 42.7673 1.53145 42.7613 1.95367V4.79473C42.7613 5.03804 42.7191 5.13107 42.713 5.15254L42.6588 5.2742H39.747V3.29906H39.7409C39.7048 1.21657 38.6678 0.0715631 37.1667 0.0715631H36.9919H35.7017C35.6415 0.579661 35.5932 0.937477 35.5329 1.44557H36.9919C37.7575 1.44557 38.1614 2.21846 38.1614 3.4064V5.39586L38.0589 5.33145C38.0409 5.32429 37.9143 5.2742 37.7153 5.2742H35.1953C35.1471 5.65348 35.0868 6.14727 35.0205 6.64105H42.7673C43.0326 6.57665 43.34 6.5194 43.6053 6.4693C43.9971 6.69831 44.7266 6.81996 45.227 6.81996C46.909 6.81996 48.0002 5.48173 48.0002 3.42072C47.9941 1.38117 46.9391 0.0429379 45.2993 0Z" fill="#27292D"/>
<path d="M31.717 7.47824H31.7893C33.4713 7.47824 34.2551 6.81986 34.2551 5.19537C34.2551 4.0289 33.5376 3.09858 32.3319 3.09858H30.7826C30.3184 3.09858 30.041 2.7837 30.041 2.25413C30.041 1.89632 30.1556 1.45262 30.9152 1.45262H34.3033C34.3756 0.930214 34.4118 0.601024 34.4781 0.0786133H30.9574C29.3176 0.0786133 28.4917 0.894432 28.4917 2.25413C28.4917 3.59952 29.2091 4.30084 30.4148 4.30084H31.9642C32.4284 4.30084 32.7057 4.73737 32.7057 5.19537C32.7057 5.49594 32.5912 6.11854 31.8376 6.11854H31.5783L26.6168 6.10423H25.7125C24.9468 6.10423 24.4103 5.58897 24.4103 4.39387V3.57089C24.4103 2.32569 24.8263 1.55281 25.7125 1.55281H27.1835C27.2498 1.02325 27.292 0.6869 27.3523 0.185958H25.5196H25.3447C23.8436 0.185958 22.8067 1.38106 22.7705 3.46355V3.54227V4.39387C22.8067 6.47635 23.8436 7.47108 25.3447 7.47108H25.5196H26.8097L29.4985 7.47824H31.1021H31.717Z" fill="#27292D"/>
</g>
<defs>
<clipPath id="clip0_1075_2463">
<rect width="48" height="19" fill="white"/>
</clipPath>
</defs>
</svg>
