<svg width="14" height="16" viewBox="0 0 14 16" fill="none" xmlns="http://www.w3.org/2000/svg">
<path d="M12.754 13.2747C12.9865 11.2031 13.0973 9.10012 13.0835 7.021C13.0808 6.59963 13.0726 6.172 13.0596 5.74644C13.4153 5.5805 13.6624 5.21972 13.6624 4.80203C13.6624 4.22769 13.1951 3.76041 12.6208 3.76041H12.4793C12.3454 3.23462 12.0213 2.75391 11.5458 2.38562C11.0527 2.00366 10.425 1.76584 9.76006 1.70588C9.31044 0.691625 8.14006 0 6.83122 0C5.52238 0 4.352 0.691625 3.90234 1.70584C3.23734 1.76584 2.60975 2.00366 2.11659 2.38559C1.64109 2.75387 1.317 3.23459 1.18306 3.76038H1.04163C0.467281 3.76038 0 4.22766 0 4.802C0 5.21981 0.247375 5.58075 0.603219 5.74656C0.589719 6.19144 0.581312 6.64144 0.578906 7.08819C0.567687 9.20653 0.68525 11.3465 0.9285 13.4522C0.881844 13.4883 0.837812 13.527 0.796594 13.5682C0.527469 13.8373 0.37925 14.1952 0.37925 14.5758C0.37925 14.9563 0.527469 15.3142 0.796594 15.5833C1.07441 15.8612 1.43925 16 1.80413 16C2.169 16 2.53391 15.8611 2.81169 15.5833C2.86216 15.5328 2.90859 15.4787 2.95081 15.4213C4.18091 15.6134 5.43219 15.7146 6.67341 15.7223C8.07819 15.7309 9.49275 15.6208 10.8815 15.3942C10.9004 15.4155 10.9199 15.4362 10.94 15.4563C11.4955 16.0118 12.3994 16.0119 12.955 15.4563C13.5106 14.9007 13.5106 13.9968 12.955 13.4412C12.8935 13.3797 12.8263 13.324 12.754 13.2747ZM4.13184 2.31884C4.26237 2.31444 4.37647 2.22947 4.41809 2.10562C4.71072 1.23459 5.70303 0.62625 6.83122 0.62625C7.95941 0.62625 8.95172 1.23459 9.24434 2.10562C9.28597 2.22947 9.40006 2.31444 9.53059 2.31884C10.6131 2.35538 11.5329 2.95269 11.8256 3.76041H1.83687C2.1295 2.95269 3.04931 2.35538 4.13184 2.31884ZM12.5122 15.0134C12.2008 15.3249 11.6942 15.3248 11.3828 15.0134C11.3439 14.9745 11.3086 14.9308 11.2778 14.8835C11.2097 14.7788 11.0857 14.7246 10.9626 14.7457C9.55006 14.9872 8.10756 15.1054 6.67737 15.096C5.39913 15.0881 4.11006 14.9785 2.84584 14.7702C2.71141 14.7482 2.57762 14.8157 2.51578 14.9374C2.47731 15.0131 2.42788 15.0815 2.36881 15.1405C2.05747 15.4519 1.55078 15.4519 1.23944 15.1405C0.928063 14.8292 0.928063 14.3225 1.23944 14.0112C1.28991 13.9607 1.34891 13.9164 1.41484 13.8795C1.52544 13.8176 1.58778 13.6951 1.57278 13.5692C1.31741 11.4276 1.19372 9.24819 1.20516 7.09156C1.20738 6.67619 1.21478 6.25787 1.22675 5.84369H5.40716C5.58006 5.84369 5.72028 5.7035 5.72028 5.53056C5.72028 5.35763 5.58009 5.21744 5.40716 5.21744H1.04163C0.812594 5.21744 0.62625 5.03109 0.62625 4.80203C0.62625 4.573 0.812594 4.38666 1.04163 4.38666H12.6208C12.8498 4.38666 13.0362 4.573 13.0362 4.80203C13.0362 5.03109 12.8498 5.21744 12.6208 5.21744H8.26038C8.08744 5.21744 7.94725 5.35763 7.94725 5.53056C7.94725 5.70347 8.08744 5.84369 8.26038 5.84369H12.4361C12.4476 6.23838 12.4548 6.63441 12.4573 7.02506C12.4714 9.14741 12.3541 11.2947 12.1086 13.4073C12.0931 13.541 12.1648 13.6697 12.2866 13.7268C12.3722 13.767 12.4481 13.8199 12.5122 13.8841C12.8236 14.1954 12.8236 14.7021 12.5122 15.0134Z" fill="#78B833"/>
<path d="M3.65784 9.90768C3.50434 9.91977 3.38243 10.0417 3.3703 10.1952C3.30508 11.0222 3.55433 11.7629 4.07212 12.2806C4.5358 12.7444 5.17815 12.9927 5.90134 12.9927C5.98568 12.9927 6.07121 12.9893 6.15758 12.9825C6.31108 12.9704 6.43299 12.8485 6.44512 12.695C6.51034 11.868 6.26105 11.1273 5.74327 10.6095C5.22546 10.0917 4.48449 9.84237 3.65784 9.90768ZM4.51493 11.8378C4.18618 11.509 4.00334 11.0499 3.98752 10.5249C4.51252 10.5407 4.97168 10.7235 5.30043 11.0523C5.62921 11.3811 5.81202 11.8401 5.82787 12.3652C5.30287 12.3494 4.84368 12.1665 4.51493 11.8378Z" fill="#78B833"/>
<path d="M10.0045 7.14742C9.17742 7.08214 8.43688 7.33148 7.91907 7.84926C7.40129 8.36707 7.15201 9.1077 7.21723 9.9347C7.22932 10.0882 7.35126 10.2101 7.50476 10.2222C7.59116 10.229 7.67663 10.2324 7.76101 10.2324C8.48413 10.2324 9.12654 9.98411 9.59023 9.52042C10.108 9.00261 10.3573 8.26195 10.292 7.43495C10.2799 7.28145 10.158 7.15954 10.0045 7.14742ZM9.14741 9.07757C8.81866 9.40632 8.35957 9.58917 7.83448 9.60498C7.85032 9.07995 8.03313 8.62086 8.36191 8.29207C8.6907 7.96326 9.14973 7.78045 9.67482 7.76464C9.65898 8.2897 9.47617 8.74879 9.14741 9.07757Z" fill="#78B833"/>
<path d="M6.83119 5.84354C7.00413 5.84354 7.14432 5.70334 7.14432 5.53041C7.14432 5.35748 7.00413 5.21729 6.83119 5.21729C6.65826 5.21729 6.51807 5.35748 6.51807 5.53041C6.51807 5.70334 6.65826 5.84354 6.83119 5.84354Z" fill="#78B833"/>
<path d="M3.72694 3.49197C3.89988 3.49197 4.04007 3.35178 4.04007 3.17885C4.04007 3.00591 3.89988 2.86572 3.72694 2.86572C3.55401 2.86572 3.41382 3.00591 3.41382 3.17885C3.41382 3.35178 3.55401 3.49197 3.72694 3.49197Z" fill="#78B833"/>
<path d="M5.86122 2.37527C6.03415 2.37527 6.17435 2.23508 6.17435 2.06215C6.17435 1.88921 6.03415 1.74902 5.86122 1.74902C5.68829 1.74902 5.5481 1.88921 5.5481 2.06215C5.5481 2.23508 5.68829 2.37527 5.86122 2.37527Z" fill="#78B833"/>
<path d="M7.47377 3.13064C7.6467 3.13064 7.78689 2.99045 7.78689 2.81752C7.78689 2.64459 7.6467 2.50439 7.47377 2.50439C7.30084 2.50439 7.16064 2.64459 7.16064 2.81752C7.16064 2.99045 7.30084 3.13064 7.47377 3.13064Z" fill="#78B833"/>
<path d="M9.50551 3.39334C9.67844 3.39334 9.81863 3.25315 9.81863 3.08022C9.81863 2.90728 9.67844 2.76709 9.50551 2.76709C9.33257 2.76709 9.19238 2.90728 9.19238 3.08022C9.19238 3.25315 9.33257 3.39334 9.50551 3.39334Z" fill="#78B833"/>
</svg>
