<svg width="14" height="16" viewBox="0 0 14 16" fill="none" xmlns="http://www.w3.org/2000/svg">
<path d="M11.7051 8.45511C11.6977 7.14416 12.3151 6.15469 13.5648 5.42599C12.8656 4.4651 11.8092 3.93643 10.4145 3.83284C9.09405 3.73282 7.6509 4.57226 7.12274 4.57226C6.56483 4.57226 5.28534 3.86856 4.28108 3.86856C2.20563 3.90071 0 5.45814 0 8.62657C0 9.56245 0.178533 10.5305 0.5356 11.5271C1.01169 12.838 2.73007 16.0529 4.52285 15.9993C5.46015 15.9779 6.12221 15.3599 7.34219 15.3599C8.52497 15.3599 9.13868 15.9993 10.1838 15.9993C11.9915 15.9743 13.5462 13.0524 14 11.7379C11.5749 10.6412 11.7051 8.52298 11.7051 8.45511ZM9.59989 2.58976C10.6153 1.4324 10.5223 0.37864 10.4926 0C9.59618 0.0500091 8.55845 0.585821 7.96706 1.24666C7.31615 1.95393 6.93305 2.82909 7.01488 3.81498C7.98565 3.88642 8.87088 3.40776 9.59989 2.58976Z" fill="black"/>
</svg>
