<svg width="44" height="44" viewBox="0 0 44 44" fill="none" xmlns="http://www.w3.org/2000/svg">
<g clip-path="url(#clip0_1075_2430)">
<path d="M8.3157 15.0744C8.83373 14.4264 9.18521 13.5565 9.09257 12.6675C8.33426 12.7052 7.40888 13.1678 6.87315 13.8162C6.39207 14.3715 5.96634 15.2779 6.07737 16.1296C6.92849 16.2035 7.77902 15.7042 8.3157 15.0744Z" fill="black"/>
<path d="M9.08303 16.2959C7.84682 16.2223 6.79571 16.9975 6.20532 16.9975C5.61467 16.9975 4.71061 16.3331 3.73282 16.3509C2.46017 16.3697 1.2793 17.0892 0.633479 18.2337C-0.694857 20.5231 0.28294 23.9192 1.57467 25.7838C2.20192 26.7062 2.958 27.722 3.9541 27.6855C4.89529 27.6486 5.26422 27.076 6.40822 27.076C7.55145 27.076 7.88377 27.6855 8.88004 27.667C9.91327 27.6486 10.5592 26.7441 11.1864 25.8207C11.9061 24.769 12.2007 23.7537 12.2191 23.6979C12.2006 23.6794 10.2269 22.9222 10.2085 20.6519C10.1899 18.7508 11.7582 17.8465 11.832 17.7905C10.9465 16.4808 9.56273 16.3331 9.08303 16.2959Z" fill="black"/>
<path d="M19.7112 13.7231C22.3981 13.7231 24.2691 15.5753 24.2691 18.2718C24.2691 20.978 22.3595 22.8397 19.6438 22.8397H16.6689V27.5707H14.5195V13.7231H19.7112ZM16.6688 21.0356H19.1351C21.0064 21.0356 22.0715 20.028 22.0715 18.2814C22.0715 16.535 21.0064 15.5369 19.1447 15.5369H16.6688V21.0356Z" fill="black"/>
<path d="M24.8311 24.7014C24.8311 22.9355 26.1841 21.8512 28.5834 21.7169L31.347 21.5538V20.7765C31.347 19.6538 30.5889 18.982 29.3224 18.982C28.1225 18.982 27.374 19.5577 27.1919 20.4599H25.2343C25.3494 18.6364 26.9039 17.293 29.3991 17.293C31.846 17.293 33.4102 18.5885 33.4102 20.6133V27.5706H31.4237V25.9104H31.3759C30.7906 27.0333 29.5141 27.7433 28.1899 27.7433C26.213 27.7433 24.8311 26.5149 24.8311 24.7014ZM31.3469 23.7898V22.9933L28.8614 23.1468C27.6235 23.2332 26.923 23.7802 26.923 24.6439C26.923 25.5266 27.6523 26.1025 28.7655 26.1025C30.2145 26.1023 31.3469 25.1043 31.3469 23.7898Z" fill="black"/>
<path d="M35.2852 31.2848V29.6054C35.4385 29.6437 35.7839 29.6437 35.9567 29.6437C36.9163 29.6437 37.4346 29.2408 37.7511 28.2044C37.7511 28.1851 37.9336 27.5902 37.9336 27.5805L34.2871 17.4756H36.5324L39.0853 25.6901H39.1235L41.6764 17.4756H43.8642L40.0829 28.0987C39.2196 30.5459 38.2215 31.3327 36.1295 31.3327C35.9567 31.3327 35.4384 31.3135 35.2852 31.2848Z" fill="black"/>
</g>
<defs>
<clipPath id="clip0_1075_2430">
<rect width="44" height="44" fill="white"/>
</clipPath>
</defs>
</svg>
