<svg width="20" height="22" viewBox="0 0 20 22" fill="none" xmlns="http://www.w3.org/2000/svg">
<path d="M17.76 14.9359C16.4636 13.8271 15.148 13.1555 13.8675 14.2626L13.1029 14.9317C12.5435 15.4175 11.5034 17.6869 7.48203 13.0609C3.46146 8.44071 5.85404 7.72135 6.41429 7.23982L7.18306 6.56986C8.45681 5.46025 7.97612 4.0634 7.05744 2.62551L6.50305 1.75457C5.58019 0.320025 4.57526 -0.622098 3.29816 0.485839L2.60811 1.0888C2.04367 1.49998 0.465926 2.83654 0.0832146 5.37567C-0.377379 8.42229 1.07558 11.9111 4.40442 15.739C7.72907 19.5687 10.9842 21.4923 14.0677 21.4588C16.6303 21.4311 18.1779 20.0561 18.6619 19.5561L19.3545 18.9523C20.6282 17.8452 19.8368 16.718 18.5396 15.6067L17.76 14.9359Z" fill="white"/>
</svg>
