<svg width="17" height="16" viewBox="0 0 17 16" fill="none" xmlns="http://www.w3.org/2000/svg">
<path d="M12.8801 12.48C11.9097 12.48 11.1201 13.2695 11.1201 14.24C11.1201 15.2105 11.9096 16 12.8801 16C13.8506 16 14.6401 15.2105 14.6401 14.24C14.6401 13.2695 13.8506 12.48 12.8801 12.48ZM12.8801 15.04C12.439 15.04 12.0801 14.6811 12.0801 14.24C12.0801 13.7989 12.439 13.44 12.8801 13.44C13.3212 13.44 13.6801 13.7989 13.6801 14.24C13.6801 14.6811 13.3212 15.04 12.8801 15.04Z" fill="#78B833"/>
<path d="M7.11986 12.48C6.14941 12.48 5.35986 13.2695 5.35986 14.24C5.35986 15.2105 6.14938 16 7.11986 16C8.0903 16 8.87985 15.2105 8.87985 14.24C8.87985 13.2695 8.09034 12.48 7.11986 12.48ZM7.11986 15.04C6.67874 15.04 6.31988 14.6811 6.31988 14.24C6.31988 13.7989 6.67874 13.44 7.11986 13.44C7.56098 13.44 7.91984 13.7989 7.91984 14.24C7.91984 14.6811 7.56098 15.04 7.11986 15.04Z" fill="#78B833"/>
<path d="M16.6148 2.10014C16.5237 1.98629 16.3858 1.92002 16.24 1.92002H3.465L3.10776 0.372058C3.05748 0.154277 2.86356 0 2.64006 0H0.560068C0.294999 0 0.0800781 0.214921 0.0800781 0.480022C0.0800781 0.745123 0.294999 0.960012 0.560068 0.960012H2.25822L4.68309 11.4679C4.73334 11.6857 4.9273 11.8399 5.1508 11.8399H14.768C15.0331 11.8399 15.248 11.625 15.248 11.36C15.248 11.0948 15.033 10.88 14.768 10.88H5.53267L5.16347 9.27996H14.8C15.0245 9.27996 15.219 9.12435 15.2683 8.90534L16.7083 2.50538C16.7403 2.36309 16.7059 2.21402 16.6148 2.10014ZM14.416 8.31995H4.94192L3.68655 2.88H15.64L14.416 8.31995Z" fill="#78B833"/>
</svg>
