<svg width="23" height="19" viewBox="0 0 23 19" fill="none" xmlns="http://www.w3.org/2000/svg">
<path d="M13.4222 12.209C12.85 12.6393 12.1853 12.8667 11.5 12.8667C10.8148 12.8667 10.1501 12.6393 9.5779 12.209L0.153139 5.12251C0.10085 5.08319 0.0499083 5.0422 0 5.00005V16.6121C0 17.9434 0.957961 19 2.11731 19H20.8827C22.0632 19 23 17.9196 23 16.6121V5C22.95 5.04225 22.899 5.08334 22.8465 5.12271L13.4222 12.209Z" fill="white"/>
<path d="M0.900684 4.00379L10.3254 10.6241C10.6822 10.8747 11.0911 11 11.5 11C11.9089 11 12.3178 10.8747 12.6746 10.6241L22.0993 4.00379C22.6633 3.60787 23 2.94524 23 2.23007C23 1.00038 22.0505 0 20.8834 0H2.11658C0.949514 4.73306e-05 0 1.00043 0 2.23126C0 2.94524 0.336734 3.60787 0.900684 4.00379Z" fill="white"/>
</svg>
