<svg width="12" height="12" viewBox="0 0 12 12" fill="none" xmlns="http://www.w3.org/2000/svg">
<path d="M6 12C9.31371 12 12 9.31371 12 6C12 2.68629 9.31371 0 6 0C2.68629 0 0 2.68629 0 6C0 9.31371 2.68629 12 6 12Z" fill="#F0F0F0"/>
<path d="M1.24016 2.34668C0.768855 2.95987 0.413473 3.66663 0.206543 4.43442H3.3279L1.24016 2.34668Z" fill="#0052B4"/>
<path d="M11.7932 4.4344C11.5863 3.66663 11.2309 2.95987 10.7596 2.34668L8.67188 4.4344H11.7932Z" fill="#0052B4"/>
<path d="M0.206543 7.56494C0.413496 8.33271 0.768879 9.03947 1.24016 9.65264L3.32783 7.56494H0.206543Z" fill="#0052B4"/>
<path d="M9.65266 1.24018C9.03946 0.768879 8.33273 0.413496 7.56494 0.206543V3.32788L9.65266 1.24018Z" fill="#0052B4"/>
<path d="M2.34668 10.7595C2.95987 11.2309 3.66663 11.5862 4.4344 11.7932V8.67188L2.34668 10.7595Z" fill="#0052B4"/>
<path d="M4.43437 0.206543C3.66661 0.413496 2.95985 0.768879 2.34668 1.24016L4.43437 3.32786V0.206543Z" fill="#0052B4"/>
<path d="M7.56494 11.7932C8.33271 11.5862 9.03947 11.2309 9.65264 10.7596L7.56494 8.67188V11.7932Z" fill="#0052B4"/>
<path d="M8.67188 7.56494L10.7596 9.65266C11.2309 9.03949 11.5863 8.33271 11.7932 7.56494H8.67188Z" fill="#0052B4"/>
<path d="M11.9492 5.2174H6.78265H6.78263V0.0507891C6.52643 0.0174375 6.26524 0 6 0C5.73471 0 5.47357 0.0174375 5.2174 0.0507891V5.21735V5.21737H0.0507891C0.0174375 5.47357 0 5.73476 0 6C0 6.26529 0.0174375 6.52643 0.0507891 6.7826H5.21735H5.21737V11.9492C5.47357 11.9826 5.73471 12 6 12C6.26524 12 6.52643 11.9826 6.7826 11.9492V6.78265V6.78263H11.9492C11.9826 6.52643 12 6.26529 12 6C12 5.73476 11.9826 5.47357 11.9492 5.2174Z" fill="#D80027"/>
<path d="M7.56543 7.56545L10.2428 10.2429C10.366 10.1198 10.4834 9.99107 10.5955 9.85766L8.30329 7.56543H7.56543V7.56545Z" fill="#D80027"/>
<path d="M4.43475 7.56543H4.43471L1.75732 10.2428C1.88042 10.366 2.00911 10.4834 2.14252 10.5955L4.43475 8.30322V7.56543Z" fill="#D80027"/>
<path d="M4.43488 4.4348V4.43475L1.75747 1.75732C1.63433 1.88042 1.51686 2.00911 1.40479 2.14252L3.69704 4.43478L4.43488 4.4348Z" fill="#D80027"/>
<path d="M7.56543 4.4349L10.2429 1.75745C10.1198 1.63431 9.99107 1.51684 9.85766 1.40479L7.56543 3.69704V4.4349Z" fill="#D80027"/>
</svg>
