<svg width="17" height="15" viewBox="0 0 17 15" fill="none" xmlns="http://www.w3.org/2000/svg">
<path d="M8.46298 14.0227C8.4627 14.0226 8.46254 14.0225 8.46249 14.0224L8.45822 14.0184L1.84485 7.76709C0.816589 6.71952 0.450017 5.60311 0.505395 4.58477C0.56146 3.55379 1.05301 2.57499 1.82567 1.82918C3.36696 0.341433 5.95685 -0.162719 8.19497 1.71972L8.52858 2.00032L8.85203 1.70805C10.6243 0.106633 13.4548 0.131347 15.1956 1.77544L15.1956 1.77551L15.2032 1.78247C16.9323 3.34896 16.9323 6.18712 15.2032 7.75361L15.2032 7.75353L15.1955 7.76079L8.57558 14.0183C8.57397 14.0198 8.55433 14.0342 8.5147 14.0342C8.48196 14.0342 8.46593 14.0245 8.46298 14.0227Z" stroke="#78B833"/>
</svg>
