<svg width="16" height="16" viewBox="0 0 16 16" fill="none" xmlns="http://www.w3.org/2000/svg">
<path d="M15.3658 6.59601L8.8523 6.5957C8.56468 6.5957 8.33154 6.82881 8.33154 7.11643V9.1972C8.33154 9.48476 8.56468 9.71793 8.85227 9.71793H12.5203C12.1186 10.7603 11.369 11.6332 10.4125 12.1879L11.9766 14.8954C14.4855 13.4444 15.9687 10.8985 15.9687 8.04848C15.9687 7.64268 15.9388 7.3526 15.879 7.02595C15.8335 6.77778 15.6181 6.59601 15.3658 6.59601Z" fill="#167EE6"/>
<path d="M7.98436 12.8442C6.18931 12.8442 4.62226 11.8634 3.78063 10.4121L1.07324 11.9726C2.45101 14.3605 5.03202 15.9685 7.98436 15.9685C9.43268 15.9685 10.7993 15.5786 11.9765 14.899V14.8953L10.4125 12.1878C9.6971 12.6027 8.86922 12.8442 7.98436 12.8442Z" fill="#12B347"/>
<path d="M11.9766 14.8992V14.8955L10.4125 12.188C9.69711 12.6029 8.8693 12.8444 7.98438 12.8444V15.9687C9.43269 15.9687 10.7994 15.5788 11.9766 14.8992Z" fill="#0F993E"/>
<path d="M3.12432 7.98456C3.12432 7.09976 3.36578 6.27198 3.78062 5.5566L1.07324 3.99609C0.389924 5.16964 0 6.53253 0 7.98456C0 9.43659 0.389924 10.7995 1.07324 11.973L3.78062 10.4125C3.36578 9.69714 3.12432 8.86936 3.12432 7.98456Z" fill="#FFD500"/>
<path d="M7.98436 3.12432C9.15491 3.12432 10.2301 3.54025 11.0699 4.23212C11.2771 4.40278 11.5783 4.39046 11.768 4.20068L13.2423 2.72638C13.4577 2.51105 13.4423 2.15858 13.2123 1.95904C11.8052 0.738335 9.97443 0 7.98436 0C5.03202 0 2.45101 1.60801 1.07324 3.99589L3.78063 5.5564C4.62226 4.10508 6.18931 3.12432 7.98436 3.12432Z" fill="#FF4B26"/>
<path d="M11.07 4.23212C11.2771 4.40278 11.5783 4.39046 11.7681 4.20068L13.2424 2.72638C13.4577 2.51105 13.4423 2.15858 13.2123 1.95904C11.8052 0.738304 9.97445 0 7.98438 0V3.12432C9.15489 3.12432 10.2301 3.54025 11.07 4.23212Z" fill="#D93F21"/>
</svg>
