<svg width="21" height="20" viewBox="0 0 21 20" fill="none" xmlns="http://www.w3.org/2000/svg">
<path d="M11.9346 2.00732C11.9346 1.1789 12.6061 0.507324 13.4346 0.507324H18.8693C19.6977 0.507324 20.3693 1.1789 20.3693 2.00732V7.26857C20.3693 8.097 19.6977 8.76857 18.8693 8.76857H13.4346C12.6061 8.76857 11.9346 8.097 11.9346 7.26857V2.00732Z" stroke="#CFCFCF"/>
<path d="M11.9346 17.8232C11.9346 18.6517 12.6061 19.3232 13.4346 19.3232H18.8693C19.6977 19.3232 20.3693 18.6517 20.3693 17.8232V12.562C20.3693 11.7336 19.6977 11.062 18.8693 11.062H13.4346C12.6061 11.062 11.9346 11.7336 11.9346 12.562V17.8232Z" stroke="#CFCFCF"/>
<path d="M7.43457 0.503005C8.263 0.50176 8.93457 1.17232 8.93457 2.00075L8.93457 7.26229C8.93457 8.09071 8.263 8.7633 7.43457 8.76454L2.00011 8.77271C1.17168 8.77395 0.500113 8.10339 0.500113 7.27496L0.500113 2.01343C0.500113 1.185 1.17169 0.512416 2.00011 0.511171L7.43457 0.503005Z" stroke="#CFCFCF"/>
<path d="M7.43457 19.144C8.263 19.1452 8.93457 18.4746 8.93457 17.6462L8.93457 12.3847C8.93457 11.5563 8.263 10.8837 7.43457 10.8824L2.00011 10.8743C1.17168 10.873 0.500113 11.5436 0.500113 12.372L0.500113 17.6335C0.500113 18.462 1.17169 19.1346 2.00011 19.1358L7.43457 19.144Z" stroke="#CFCFCF"/>
</svg>
