<svg width="15" height="15" viewBox="0 0 15 15" fill="none" xmlns="http://www.w3.org/2000/svg">
<path fill-rule="evenodd" clip-rule="evenodd" d="M14.6132 2.59081C14.7978 3.06569 14.9267 3.61373 14.9619 4.4109C14.997 5.21103 15 5.46599 15 7.50292C15 9.53984 14.9912 9.7948 14.956 10.5949C14.9209 11.3921 14.7919 11.9373 14.6073 12.415C14.2175 13.4232 13.4203 14.2204 12.4121 14.6102C11.9373 14.7948 11.3892 14.9238 10.5921 14.9589C9.79194 14.9942 9.53698 15.0029 7.50006 15.0029C5.46313 15.0029 5.20806 14.9942 4.40803 14.9589C3.61076 14.9238 3.06569 14.7948 2.58794 14.6102C2.0897 14.4227 1.63542 14.1266 1.26026 13.7456C0.879248 13.3704 0.583303 12.9191 0.3928 12.415C0.208135 11.9401 0.0791095 11.3921 0.0439624 10.5949C0.00881538 9.7948 0 9.53984 0 7.50292C0 5.46599 0.00881538 5.21104 0.046939 4.40792C0.0820861 3.61076 0.210997 3.06569 0.395662 2.58794C0.583303 2.0897 0.879248 1.63542 1.26026 1.26026C1.63542 0.876272 2.08673 0.583189 2.59092 0.392685C3.06569 0.208135 3.61373 0.0791095 4.4109 0.0439624C5.21103 0.00881538 5.46599 0 7.50292 0C9.53984 0 9.7948 0.00881538 10.5979 0.046939C11.3951 0.0820861 11.9403 0.210997 12.4179 0.395662C12.9161 0.583189 13.3704 0.879248 13.7456 1.26026C14.1296 1.63542 14.4226 2.08673 14.6132 2.59081ZM13.3527 11.9283C13.4553 11.6645 13.5784 11.2688 13.6106 10.5361C13.6458 9.7448 13.6546 9.51033 13.6546 7.50856C13.6546 5.50678 13.6458 5.26945 13.6106 4.47813C13.5784 3.74828 13.4553 3.34976 13.3527 3.08598C13.2325 2.76061 13.042 2.46753 12.7929 2.22425C12.5526 1.97513 12.2565 1.78463 11.9313 1.66453C11.6675 1.56195 11.2718 1.43888 10.5391 1.40659C9.75066 1.37145 9.51333 1.36263 7.50857 1.36263C5.50691 1.36263 5.26947 1.37145 4.47814 1.40659C3.74841 1.43888 3.34977 1.56195 3.086 1.66453C2.76063 1.78463 2.46755 1.97513 2.22438 2.22425C1.97228 2.46467 1.78178 2.76061 1.66157 3.08598C1.55899 3.34976 1.43592 3.74542 1.40375 4.47813C1.36849 5.26647 1.35979 5.50678 1.35979 7.50856C1.35979 9.51033 1.36849 9.74778 1.40375 10.5391C1.43592 11.2688 1.55899 11.6675 1.66157 11.9312C1.78178 12.2565 1.97228 12.5496 2.2214 12.7929C2.46171 13.042 2.75777 13.2325 3.08302 13.3527C3.3468 13.4553 3.74246 13.5783 4.47517 13.6105C5.26363 13.6458 5.50393 13.6545 7.50571 13.6545C9.50749 13.6545 9.74482 13.6458 10.5361 13.6105C11.266 13.5783 11.6645 13.4553 11.9283 13.3527C12.5819 13.1006 13.1006 12.5819 13.3527 11.9283Z" fill="#5C5C5C"/>
<path fill-rule="evenodd" clip-rule="evenodd" d="M3.64893 7.50296C3.64893 5.37514 5.37525 3.64893 7.50296 3.64893C9.63079 3.64893 11.357 5.37514 11.357 7.50296C11.357 9.63079 9.63079 11.357 7.50296 11.357C5.37525 11.357 3.64893 9.63079 3.64893 7.50296ZM5.00315 7.50316C5.00315 8.88363 6.12282 10.0032 7.50317 10.0032C8.88364 10.0032 10.0032 8.88363 10.0032 7.50316C10.0032 6.12269 8.88364 5.00314 7.50317 5.00314C6.12282 5.00314 5.00315 6.12269 5.00315 7.50316Z" fill="#5C5C5C"/>
<path d="M12.409 3.49642C12.409 3.99329 12.0061 4.39616 11.5091 4.39616C11.0122 4.39616 10.6094 3.99329 10.6094 3.49642C10.6094 2.99944 11.0122 2.59668 11.5091 2.59668C12.0061 2.59668 12.409 2.99944 12.409 3.49642Z" fill="#5C5C5C"/>
</svg>
