<svg width="15" height="15" viewBox="0 0 15 15" fill="none" xmlns="http://www.w3.org/2000/svg">
<path d="M1.99928 0C0.897698 0 0.000806558 0.896719 0 1.99917C0 3.10162 0.896892 3.99851 1.99928 3.99851C3.10127 3.99851 3.9977 3.10162 3.9977 1.99917C3.9977 0.896834 3.10121 0 1.99928 0Z" fill="#5C5C5C"/>
<path d="M3.49999 4.80176H0.498794C0.356033 4.80176 0.240234 4.9175 0.240234 5.06037V14.7203C0.240234 14.8632 0.356033 14.9789 0.498794 14.9789H3.49994C3.64276 14.9789 3.75855 14.8631 3.75855 14.7203V5.06037C3.75861 4.91744 3.64281 4.80176 3.49999 4.80176Z" fill="#5C5C5C"/>
<path d="M11.1721 4.68799C10.0738 4.68799 9.10862 5.02242 8.51966 5.56777V5.06033C8.51966 4.91745 8.40386 4.80171 8.26104 4.80171H5.38215C5.23933 4.80171 5.12354 4.91745 5.12354 5.06033V14.7203C5.12354 14.8631 5.23933 14.9789 5.38215 14.9789H8.38047C8.52329 14.9789 8.63909 14.8631 8.63909 14.7203V9.94104C8.63909 8.56978 8.89131 7.71984 10.1501 7.71984C11.3902 7.72134 11.483 8.63275 11.483 10.023V14.7203C11.483 14.8631 11.5988 14.9789 11.7417 14.9789H14.7414C14.8841 14.9789 14.9999 14.8631 14.9999 14.7203V9.42139C14.9999 7.21758 14.5648 4.68799 11.1721 4.68799Z" fill="#5C5C5C"/>
</svg>
