<svg width="29" height="19" viewBox="0 0 29 19" fill="none" xmlns="http://www.w3.org/2000/svg">
<g clip-path="url(#clip0_1075_2440)">
<path d="M9.0625 19C14.0676 19 18.125 14.7467 18.125 9.5C18.125 4.25329 14.0676 0 9.0625 0C4.05742 0 0 4.25329 0 9.5C0 14.7467 4.05742 19 9.0625 19Z" fill="#F93232"/>
<path d="M19.9375 0C17.9021 0 16.0298 0.7125 14.5181 1.9H14.5V1.9133C14.1411 2.1964 13.8112 2.5156 13.4968 2.85H15.5032C15.7823 3.14735 16.0397 3.4656 16.2781 3.8H12.7147C12.4954 4.10305 12.2942 4.4194 12.1102 4.75H16.8807C17.0511 5.0578 17.2115 5.3713 17.3502 5.7H11.6489C11.5193 6.00875 11.4052 6.3251 11.3073 6.65H17.6909C17.7852 6.9597 17.8595 7.27795 17.9247 7.6H11.0707C11.01 7.9116 10.9593 8.227 10.9285 8.55H18.0706C18.106 8.8616 18.125 9.17795 18.125 9.5H10.875C10.875 9.82205 10.8995 10.1365 10.9294 10.45H18.0724C18.038 10.772 17.9882 11.0884 17.9256 11.4H11.0717C11.1342 11.7239 11.2148 12.0393 11.3082 12.35H17.6918C17.5939 12.6749 17.4798 12.9913 17.3502 13.3H11.6489C11.7858 13.6268 11.9398 13.9441 12.1102 14.25H16.8807C16.6977 14.5806 16.4938 14.8969 16.2744 15.2H12.7147C12.9557 15.5344 13.2158 15.8526 13.4959 16.15H15.5032C15.1878 16.4853 14.8589 16.8036 14.5 17.0867C16.0153 18.2827 17.8939 19 19.9375 19C24.9427 19 29 14.7459 29 9.5C29 4.2541 24.9427 0 19.9375 0Z" fill="#FED049"/>
</g>
<defs>
<clipPath id="clip0_1075_2440">
<rect width="29" height="19" fill="white"/>
</clipPath>
</defs>
</svg>
