<svg width="12" height="17" viewBox="0 0 12 17" fill="none" xmlns="http://www.w3.org/2000/svg">
<path d="M10.1053 6.64166L10.0215 6.55243L10.0059 6.53855C8.78968 5.45167 8.19824 3.82108 8.3833 2.06482L8.60089 0L6.73464 1.08403C4.75129 2.23602 3.44552 4.37023 3.22576 6.75658L1.13169 6.09835L0.968195 6.50029C0.309407 8.1192 -0.0161322 9.67326 0.000614655 11.1194C0.0189277 12.6968 0.606271 14.1759 1.65445 15.2843C2.70059 16.3907 4.08467 17 5.55152 17H6.44898C9.49281 17 11.9829 14.3597 11.9999 11.1141C12.0094 9.2852 11.3895 7.82206 10.1053 6.64166ZM5.77574 16.0016C4.64298 16.0016 3.70985 15.0143 3.69576 13.8007C3.68998 13.3034 3.78226 12.7688 3.97045 12.2068L5.28659 12.6204L5.29213 11.9609C5.3002 11.0035 5.74911 10.1193 6.47922 9.59311C6.47706 10.567 6.85368 11.4572 7.54259 12.0814L7.5697 12.1102L7.5956 12.1357C8.08945 12.5872 8.308 13.1015 8.30439 13.8032C8.298 15.0155 7.365 16.0016 6.22453 16.0016H5.77574ZM8.90257 15.2475C9.1104 14.8149 9.22908 14.3261 9.23173 13.8089C9.23691 12.8194 8.90257 12.0272 8.20969 11.3874L8.16656 11.3415L8.15102 11.3277C7.5962 10.8317 7.33729 10.1155 7.42199 9.31101L7.58078 7.8039L6.25718 8.57276C5.28008 9.14033 4.61069 10.1541 4.42021 11.3081L3.43528 10.9985L3.27179 11.4003C2.92902 12.2426 2.75962 13.0544 2.76854 13.8133C2.77432 14.3164 2.88709 14.8011 3.09456 15.2371C1.8118 14.3675 0.948196 12.8412 0.927955 11.107C0.91422 9.92229 1.16048 8.645 1.66024 7.30456L4.11503 8.07614L4.12057 7.41662C4.13985 5.13572 5.3102 3.04587 7.175 1.96275L7.47946 1.78584L7.46187 1.95237C7.24175 4.0417 7.94716 5.98668 9.39787 7.29263L9.46558 7.36474L9.49148 7.39029C10.5781 8.38366 11.0805 9.56522 11.0726 11.1085C11.0634 12.849 10.1969 14.3798 8.90257 15.2475Z" fill="#78B833"/>
</svg>
