<svg width="16" height="16" viewBox="0 0 16 16" fill="none" xmlns="http://www.w3.org/2000/svg">
<g clip-path="url(#clip0_902_72206)">
<path d="M12.8438 8.21444V6.71875C12.8438 4.53681 11.3934 2.68747 9.40629 2.08344V1.40625C9.40629 0.630844 8.77544 0 8.00004 0C7.22463 0 6.59379 0.630844 6.59379 1.40625V2.08344C4.6066 2.68747 3.15629 4.53678 3.15629 6.71875V8.21444C3.15629 10.1311 2.42572 11.9484 1.09919 13.3318C0.969193 13.4674 0.932661 13.6674 1.00635 13.8402C1.08004 14.0129 1.24972 14.125 1.43754 14.125H5.70344C5.92119 15.1935 6.86819 16 8.00004 16C9.13191 16 10.0788 15.1935 10.2966 14.125H14.5625C14.7503 14.125 14.92 14.0129 14.9937 13.8402C15.0674 13.6674 15.0308 13.4674 14.9009 13.3318C13.5743 11.9484 12.8438 10.131 12.8438 8.21444ZM7.53129 1.40625C7.53129 1.14778 7.74157 0.9375 8.00004 0.9375C8.25851 0.9375 8.46879 1.14778 8.46879 1.40625V1.89775C8.31451 1.88287 8.15816 1.875 8.00004 1.875C7.84191 1.875 7.68557 1.88287 7.53129 1.89775V1.40625ZM8.00004 15.0625C7.38894 15.0625 6.86791 14.6706 6.67441 14.125H9.32566C9.13216 14.6706 8.61113 15.0625 8.00004 15.0625ZM2.44785 13.1875C3.51538 11.7565 4.09379 10.0247 4.09379 8.21444V6.71875C4.09379 4.56484 5.84613 2.8125 8.00004 2.8125C10.1539 2.8125 11.9063 4.56484 11.9063 6.71875V8.21444C11.9063 10.0247 12.4847 11.7565 13.5523 13.1875H2.44785Z" fill="#78B833"/>
<path d="M14.094 6.71853C14.094 6.97741 14.3039 7.18728 14.5627 7.18728C14.8216 7.18728 15.0315 6.97741 15.0315 6.71853C15.0315 4.84041 14.3001 3.07469 12.9721 1.74666C12.789 1.56363 12.4922 1.5636 12.3092 1.74666C12.1261 1.92972 12.1261 2.2265 12.3092 2.40957C13.4601 3.56054 14.094 5.09082 14.094 6.71853Z" fill="#78B833"/>
<path d="M1.4375 7.18727C1.69638 7.18727 1.90625 6.97739 1.90625 6.71852C1.90625 5.09083 2.54012 3.56055 3.69106 2.40958C3.87413 2.22652 3.87413 1.92973 3.69106 1.74667C3.50803 1.56361 3.21122 1.56361 3.02816 1.74667C1.70012 3.0747 0.96875 4.84039 0.96875 6.71852C0.96875 6.97739 1.17862 7.18727 1.4375 7.18727Z" fill="#78B833"/>
</g>
<defs>
<clipPath id="clip0_902_72206">
<rect width="16" height="16" fill="white"/>
</clipPath>
</defs>
</svg>
