<svg width="18" height="18" viewBox="0 0 18 18" fill="none" xmlns="http://www.w3.org/2000/svg">
<path d="M9 5.625C7.88748 5.625 6.79995 5.9549 5.87492 6.57298C4.94989 7.19107 4.22892 8.06957 3.80318 9.09741C3.37744 10.1252 3.26604 11.2562 3.48309 12.3474C3.70013 13.4385 4.23586 14.4408 5.02253 15.2275C5.8092 16.0141 6.81148 16.5499 7.90262 16.7669C8.99376 16.984 10.1248 16.8726 11.1526 16.4468C12.1804 16.0211 13.0589 15.3001 13.677 14.3751C14.2951 13.4501 14.625 12.3625 14.625 11.25C14.625 9.75816 14.0324 8.32742 12.9775 7.27252C11.9226 6.21763 10.4918 5.625 9 5.625ZM9 15.75C8.10999 15.75 7.23996 15.4861 6.49994 14.9916C5.75992 14.4971 5.18314 13.7943 4.84254 12.9721C4.50195 12.1498 4.41284 11.245 4.58647 10.3721C4.7601 9.49918 5.18869 8.69736 5.81802 8.06802C6.44736 7.43868 7.24918 7.0101 8.1221 6.83647C8.99501 6.66283 9.89981 6.75195 10.7221 7.09254C11.5443 7.43314 12.2471 8.00991 12.7416 8.74993C13.2361 9.48996 13.5 10.36 13.5 11.25C13.5 12.4435 13.0259 13.5881 12.182 14.432C11.3381 15.2759 10.1935 15.75 9 15.75Z" fill="#78B833"/>
<path d="M9.00008 9.5625C9.14926 9.5625 9.29233 9.62176 9.39782 9.72725C9.50331 9.83274 9.56258 9.97582 9.56258 10.125C9.56258 10.2742 9.62184 10.4173 9.72733 10.5227C9.83282 10.6282 9.97589 10.6875 10.1251 10.6875C10.2743 10.6875 10.4173 10.6282 10.5228 10.5227C10.6283 10.4173 10.6876 10.2742 10.6876 10.125C10.6878 9.77588 10.5797 9.4353 10.3782 9.1502C10.1767 8.86509 9.89173 8.6495 9.56258 8.53313V8.4375C9.56258 8.28832 9.50331 8.14524 9.39782 8.03975C9.29233 7.93426 9.14926 7.875 9.00008 7.875C8.85089 7.875 8.70782 7.93426 8.60233 8.03975C8.49684 8.14524 8.43758 8.28832 8.43758 8.4375V8.53313C8.06164 8.66537 7.74464 8.9264 7.54271 9.26998C7.34079 9.61355 7.26698 10.0175 7.33435 10.4103C7.40172 10.8031 7.60593 11.1593 7.91081 11.416C8.21569 11.6726 8.60156 11.8131 9.00008 11.8125C9.11133 11.8125 9.22008 11.8455 9.31258 11.9073C9.40509 11.9691 9.47718 12.057 9.51976 12.1597C9.56233 12.2625 9.57347 12.3756 9.55177 12.4847C9.53006 12.5939 9.47649 12.6941 9.39782 12.7727C9.31916 12.8514 9.21893 12.905 9.10981 12.9267C9.0007 12.9484 8.8876 12.9373 8.78482 12.8947C8.68203 12.8521 8.59418 12.78 8.53237 12.6875C8.47057 12.595 8.43758 12.4863 8.43758 12.375C8.43758 12.2258 8.37831 12.0827 8.27282 11.9773C8.16733 11.8718 8.02426 11.8125 7.87508 11.8125C7.72589 11.8125 7.58282 11.8718 7.47733 11.9773C7.37184 12.0827 7.31258 12.2258 7.31258 12.375C7.31239 12.7241 7.42049 13.0647 7.62198 13.3498C7.82347 13.6349 8.10843 13.8505 8.43758 13.9669V14.0625C8.43758 14.2117 8.49684 14.3548 8.60233 14.4602C8.70782 14.5657 8.85089 14.625 9.00008 14.625C9.14926 14.625 9.29233 14.5657 9.39782 14.4602C9.50331 14.3548 9.56258 14.2117 9.56258 14.0625V13.9669C9.93636 13.8355 10.252 13.5768 10.4542 13.2361C10.6565 12.8954 10.7324 12.4945 10.6686 12.1034C10.6049 11.7124 10.4057 11.3562 10.1057 11.0974C9.8058 10.8385 9.42435 10.6934 9.0282 10.6875H9.00008C8.85089 10.6875 8.70782 10.6282 8.60233 10.5227C8.49684 10.4173 8.43758 10.2742 8.43758 10.125C8.43758 9.97582 8.49684 9.83274 8.60233 9.72725C8.70782 9.62176 8.85089 9.5625 9.00008 9.5625Z" fill="#78B833"/>
<path d="M11.4132 5.46187C11.4655 5.5146 11.5277 5.55644 11.5963 5.585C11.6648 5.61356 11.7383 5.62826 11.8126 5.62826C11.8869 5.62826 11.9604 5.61356 12.0289 5.585C12.0975 5.55644 12.1597 5.5146 12.212 5.46187L13.8995 3.77437C14.0054 3.66845 14.0649 3.52479 14.0649 3.375C14.0649 3.22521 14.0054 3.08155 13.8995 2.97563C13.7936 2.8697 13.6499 2.8102 13.5001 2.8102C13.3503 2.8102 13.2067 2.8697 13.1007 2.97563L12.3751 3.70688V1.6875C12.3751 1.53832 12.3158 1.39524 12.2104 1.28975C12.1049 1.18426 11.9618 1.125 11.8126 1.125C11.6634 1.125 11.5203 1.18426 11.4149 1.28975C11.3094 1.39524 11.2501 1.53832 11.2501 1.6875V3.70688L10.5245 2.97563C10.472 2.92318 10.4098 2.88158 10.3412 2.85319C10.2727 2.82481 10.1993 2.8102 10.1251 2.8102C9.97531 2.8102 9.83165 2.8697 9.72573 2.97563C9.61981 3.08155 9.5603 3.22521 9.5603 3.375C9.5603 3.52479 9.61981 3.66845 9.72573 3.77437L11.4132 5.46187Z" fill="#78B833"/>
<path d="M5.78823 5.46187C5.84052 5.5146 5.90273 5.55644 5.97128 5.585C6.03983 5.61356 6.11335 5.62826 6.1876 5.62826C6.26186 5.62826 6.33538 5.61356 6.40393 5.585C6.47247 5.55644 6.53469 5.5146 6.58698 5.46187L8.27448 3.77437C8.3804 3.66845 8.43991 3.52479 8.43991 3.375C8.43991 3.22521 8.3804 3.08155 8.27448 2.97563C8.16856 2.8697 8.0249 2.8102 7.8751 2.8102C7.72531 2.8102 7.58165 2.8697 7.47573 2.97563L6.7501 3.70688V1.6875C6.7501 1.53832 6.69084 1.39524 6.58535 1.28975C6.47986 1.18426 6.33679 1.125 6.1876 1.125C6.03842 1.125 5.89535 1.18426 5.78986 1.28975C5.68437 1.39524 5.6251 1.53832 5.6251 1.6875V3.70688L4.89948 2.97563C4.84703 2.92318 4.78477 2.88158 4.71624 2.85319C4.64772 2.82481 4.57428 2.8102 4.5001 2.8102C4.42593 2.8102 4.35249 2.82481 4.28396 2.85319C4.21544 2.88158 4.15318 2.92318 4.10073 2.97563C4.04828 3.02807 4.00668 3.09033 3.9783 3.15886C3.94991 3.22738 3.9353 3.30083 3.9353 3.375C3.9353 3.44917 3.94991 3.52262 3.9783 3.59114C4.00668 3.65967 4.04828 3.72193 4.10073 3.77437L5.78823 5.46187Z" fill="#78B833"/>
</svg>
