<svg width="26" height="34" viewBox="0 0 26 34" fill="none" xmlns="http://www.w3.org/2000/svg">
<path d="M21.6631 12.3627C21.6631 7.58592 17.7768 3.69971 13.0001 3.69971C8.22313 3.69971 4.33691 7.58592 4.33691 12.3627C4.33691 17.1396 8.22313 21.0258 13.0001 21.0258C17.7768 21.0258 21.6631 17.1396 21.6631 12.3627ZM13.0001 20.0549C8.75865 20.0549 5.30784 16.6041 5.30784 12.3627C5.30784 8.12144 8.75865 4.67063 13.0001 4.67063C17.2416 4.67063 20.6921 8.12144 20.6921 12.3627C20.6921 16.6041 17.2416 20.0549 13.0001 20.0549Z" fill="black"/>
<path d="M19.0332 10.4634C18.9417 10.1812 18.681 9.99183 18.3844 9.99183H14.7667L13.6489 6.55138C13.5571 6.26946 13.2964 6.08008 13.0001 6.08008C12.7037 6.08008 12.4431 6.26946 12.3513 6.55138L11.2334 9.99208H7.61576C7.31917 9.99208 7.05849 10.1815 6.96696 10.4634C6.87543 10.7453 6.97505 11.0518 7.21474 11.226L10.1414 13.3524L9.02359 16.7928C8.93206 17.0748 9.03143 17.3815 9.27138 17.5557C9.51107 17.7299 9.83345 17.7299 10.0734 17.5557L13.0001 15.4292L15.9267 17.5557C16.0468 17.6429 16.1872 17.6864 16.3278 17.6864C16.4683 17.6864 16.6089 17.6429 16.7288 17.5557C16.9687 17.3815 17.0681 17.0748 16.9766 16.7928L15.8585 13.3524L18.7851 11.226C19.0251 11.0518 19.1247 10.7453 19.0332 10.4634ZM15.1181 12.6902C14.8784 12.8644 14.7788 13.1708 14.8704 13.453L15.7783 16.2477L13.4011 14.5205C13.281 14.4333 13.1407 14.3898 13.0001 14.3898C12.8595 14.3898 12.7189 14.4333 12.5991 14.5205L10.2218 16.2477L11.1298 13.4528C11.2213 13.1708 11.1217 12.8644 10.882 12.6902L8.5045 10.9628H11.4433C11.7396 10.9628 12.0003 10.7734 12.0921 10.4914L13.0001 7.69651L13.908 10.4914C13.9998 10.7734 14.2605 10.9628 14.5568 10.9628H17.4956L15.1181 12.6902Z" fill="black"/>
<path d="M25.9004 28.4229L21.3485 20.4315L22.1459 20.1756C23.1067 19.8676 23.7409 18.9488 23.6883 17.9412L23.6279 16.784C23.6094 16.4338 23.7399 16.0894 23.9859 15.8393L24.7988 15.0133C25.5062 14.294 25.6407 13.1857 25.126 12.318L24.5346 11.3215C24.3555 11.0199 24.3113 10.6543 24.4127 10.3185L24.7485 9.20926C25.0407 8.24364 24.6448 7.1999 23.7859 6.67095L22.799 6.06312C22.5004 5.8793 22.2911 5.57639 22.2251 5.23177L22.0069 4.09371C21.817 3.10282 20.9813 2.36249 19.9748 2.29321L18.8185 2.21382C18.4686 2.1898 18.1427 2.01862 17.9242 1.74429L17.2018 0.837841C16.5733 0.0489676 15.4891 -0.218036 14.5659 0.188285L13.5052 0.655288C13.5052 0.655288 13.5052 0.655288 13.505 0.655288C13.1841 0.796628 12.816 0.796628 12.4949 0.655288L11.4342 0.188285C10.5108 -0.218036 9.42687 0.0489676 8.79804 0.838094L8.07592 1.74429C7.85746 2.01862 7.53155 2.1898 7.18161 2.21382L6.02536 2.29321C5.01878 2.36249 4.18313 3.10282 3.99325 4.09371L3.77504 5.23177C3.7088 5.57614 3.4997 5.8793 3.20109 6.06312L2.21424 6.6707C1.35533 7.19965 0.959372 8.24364 1.25166 9.20926L1.58718 10.3185C1.68883 10.6543 1.64458 11.0196 1.46557 11.3213L0.874163 12.318C0.359373 13.1855 0.493886 14.294 1.20134 15.013L2.01424 15.8393C2.26 16.0894 2.39072 16.4335 2.37226 16.7837L2.31183 17.9412C2.25924 18.9486 2.89338 19.8674 3.85393 20.1756L4.65165 20.4312L0.0997016 28.4229C-0.0378455 28.6643 -0.0327887 28.9612 0.113102 29.1978C0.258993 29.4345 0.523215 29.5731 0.799574 29.5579L4.60412 29.3609L6.37529 32.7341C6.5045 32.9799 6.75734 33.1359 7.03522 33.1404C7.03951 33.1404 7.04381 33.1407 7.04811 33.1407C7.32093 33.1407 7.57327 32.9946 7.70854 32.7569L12.3409 24.6239C12.5553 24.6904 12.7776 24.725 13.0001 24.725C13.2226 24.725 13.4446 24.6904 13.6592 24.6239L18.2916 32.7569C18.4269 32.9946 18.6789 33.1407 18.9518 33.1407C18.9561 33.1407 18.9606 33.1407 18.9649 33.1404C19.2428 33.1359 19.4956 32.9801 19.6248 32.7341L21.3957 29.3609L25.2005 29.5579C25.4792 29.5726 25.7411 29.4343 25.8868 29.1978C26.0327 28.9612 26.038 28.6643 25.9004 28.4229ZM7.0557 31.9415L5.44255 28.8694L6.39501 27.1976C6.52776 26.9645 6.44659 26.6681 6.21347 26.5354C5.98086 26.4029 5.68427 26.4841 5.55153 26.7169L4.59906 28.389L1.13409 28.5685L5.5088 20.8884C5.59122 20.9807 5.66101 21.0851 5.7136 21.1994L6.19805 22.2525C6.44938 22.7989 6.90247 23.2039 7.43774 23.4049L6.67921 24.7369C6.54647 24.9698 6.62788 25.2664 6.86075 25.3991C6.93661 25.4421 7.01929 25.4626 7.1007 25.4626C7.26935 25.4626 7.43344 25.3746 7.52295 25.2173L8.48351 23.5311C8.52295 23.5263 8.56239 23.521 8.60184 23.5139L9.74368 23.3144C10.0888 23.254 10.4463 23.3422 10.7242 23.5561L11.4941 24.1491L7.0557 31.9415ZM13.6312 23.5829C13.6294 23.5839 13.6279 23.5845 13.6264 23.5855C13.6238 23.587 13.6213 23.5888 13.6188 23.5903C13.2357 23.808 12.7644 23.808 12.3814 23.5903C12.3788 23.5888 12.3765 23.587 12.3738 23.5855C12.3722 23.5845 12.3707 23.5839 12.3692 23.5829C12.3232 23.5561 12.2782 23.5273 12.2352 23.4942L11.3169 22.787C10.9257 22.4856 10.4456 22.3248 9.95759 22.3248C9.83066 22.3248 9.70323 22.3359 9.57655 22.3579L8.43471 22.5574C8.36113 22.5703 8.28755 22.5761 8.21473 22.5759C8.20866 22.5756 8.20285 22.5754 8.19703 22.5754C7.72295 22.567 7.28401 22.2896 7.08022 21.8464L6.59577 20.7936C6.38869 20.3432 6.03598 19.9774 5.60184 19.7508C5.60083 19.7503 5.60007 19.7496 5.59906 19.7491C5.59628 19.7475 5.5935 19.7463 5.59097 19.745C5.5806 19.7397 5.57024 19.7344 5.55987 19.7293C5.55734 19.7281 5.55532 19.7271 5.55279 19.7261C5.45671 19.6788 5.35709 19.6381 5.25418 19.6049L4.15052 19.2512C3.60918 19.0775 3.25166 18.5597 3.28149 17.992L3.34192 16.8345C3.37429 16.213 3.14268 15.6022 2.70627 15.1587L1.89363 14.3324C1.4949 13.9271 1.41904 13.3025 1.70905 12.8135L2.30046 11.8168C2.61803 11.2816 2.69692 10.633 2.51664 10.0373L2.18086 8.92809C2.01601 8.38397 2.23927 7.79561 2.72346 7.49775L3.71032 6.88992C4.24028 6.5635 4.61145 6.02595 4.72852 5.41457L4.94672 4.27652C5.05368 3.71824 5.52472 3.30105 6.09185 3.26186L7.24811 3.18246C7.86884 3.13973 8.44735 2.83607 8.83521 2.34934L9.55733 1.44315C9.91182 0.998397 10.5227 0.847955 11.043 1.07703L12.1035 1.54378C12.6731 1.7946 13.3267 1.7946 13.8961 1.54378L14.9568 1.07703C15.4774 0.847955 16.088 0.998397 16.4423 1.44315L17.1647 2.3496C17.5523 2.83632 18.131 3.13973 18.7518 3.18246L19.908 3.26211C20.4751 3.30105 20.9462 3.71824 21.0531 4.27652L21.2713 5.41483C21.3887 6.02595 21.7598 6.56375 22.2896 6.88992L23.2764 7.49775C23.7606 7.79586 23.9839 8.38397 23.819 8.92809L23.4832 10.0376C23.303 10.633 23.3818 11.2816 23.6994 11.8171L24.2908 12.8135C24.5808 13.3025 24.5052 13.9271 24.1062 14.3324L23.2936 15.1587C22.8572 15.6022 22.6256 16.213 22.6579 16.8348L22.7184 17.992C22.7482 18.5597 22.3907 19.0775 21.8494 19.2512L20.7457 19.6049C20.6428 19.6381 20.5432 19.6788 20.4471 19.7258C20.4445 19.7271 20.4423 19.7281 20.44 19.7291C20.4296 19.7344 20.419 19.7397 20.4086 19.745C20.4061 19.7465 20.4033 19.7475 20.4008 19.7491C20.3998 19.7496 20.399 19.7501 20.3983 19.7506C19.9639 19.9771 19.6112 20.3432 19.4041 20.7936L18.9196 21.8467C18.7161 22.2894 18.2777 22.5668 17.8038 22.5754C17.797 22.5754 17.7899 22.5756 17.7831 22.5761C17.7108 22.5761 17.638 22.5703 17.5649 22.5574L16.4233 22.3579C15.8102 22.2507 15.1758 22.4072 14.6827 22.787L13.7647 23.4942C13.7219 23.5273 13.6769 23.5561 13.6312 23.5829ZM21.4011 28.389L20.4408 26.7033C20.308 26.4702 20.0114 26.389 19.7788 26.5217C19.5457 26.6545 19.4645 26.9508 19.5973 27.1839L20.5573 28.8694L18.9444 31.9415L14.506 24.1491L15.2757 23.5561C15.5535 23.3422 15.9111 23.254 16.2564 23.3144L17.398 23.5139C17.4375 23.521 17.4772 23.5263 17.5166 23.5311L18.4767 25.2168C18.5662 25.3738 18.7303 25.4621 18.8989 25.4621C18.9803 25.4621 19.063 25.4416 19.1389 25.3984C19.3717 25.2656 19.4529 24.9693 19.3204 24.7362L18.5621 23.4049C19.0974 23.2037 19.5505 22.7989 19.8018 22.2525L20.2863 21.1994C20.3389 21.0851 20.4086 20.9807 20.4911 20.8884L24.8658 28.5685L21.4011 28.389Z" fill="black"/>
</svg>
