<svg width="12" height="12" viewBox="0 0 12 12" fill="none" xmlns="http://www.w3.org/2000/svg">
<path fill-rule="evenodd" clip-rule="evenodd" d="M8.74866 7.97692C9.42076 7.13672 9.82266 6.07096 9.82266 4.91133C9.82266 2.19888 7.62378 0 4.91133 0C2.19888 0 0 2.19888 0 4.91133C0 7.62378 2.19888 9.82266 4.91133 9.82266C6.07096 9.82266 7.13672 9.42076 7.97692 8.74866L11.0684 11.8402C11.2815 12.0533 11.6271 12.0533 11.8402 11.8402C12.0533 11.6271 12.0533 11.2815 11.8402 11.0684L8.74866 7.97692ZM4.91133 8.73673C2.79862 8.73673 1.08593 7.02404 1.08593 4.91133C1.08593 2.79862 2.79862 1.08593 4.91133 1.08593C7.02404 1.08593 8.73673 2.79862 8.73673 4.91133C8.73673 7.02404 7.02404 8.73673 4.91133 8.73673Z" fill="#D9D9D9"/>
</svg>
