<svg width="14" height="14" viewBox="0 0 14 14" fill="none" xmlns="http://www.w3.org/2000/svg">
<g clip-path="url(#clip0_1010_4339)">
<path d="M0.487578 9.76873C0.756917 9.76873 0.975157 9.98704 0.975157 10.2563V12.3352L4.11549 9.19553C4.21073 9.10036 4.33548 9.05277 4.46024 9.05277C4.58506 9.05277 4.70988 9.10036 4.80505 9.1956C4.99547 9.38601 4.99547 9.69475 4.80499 9.8851L1.66453 13.0248H3.74389C4.01316 13.0248 4.23146 13.2431 4.23146 13.5124C4.23146 13.7817 4.01323 14 3.74389 14H0.487578C0.21824 14 0 13.7817 0 13.5124V10.2562C0 9.98704 0.21824 9.76873 0.487578 9.76873Z" fill="#78B833"/>
<path d="M13.5125 4.23166C13.2432 4.23166 13.0249 4.01335 13.0249 3.74408V1.66511L9.78794 4.90211C9.59746 5.09253 9.28879 5.09253 9.09838 4.90211C8.90796 4.71169 8.90796 4.40296 9.09838 4.21261L12.3353 0.975675H10.2565C9.98714 0.975675 9.7689 0.75737 9.7689 0.488097C9.7689 0.218823 9.98714 0.000518322 10.2565 0.000518322H13.5126C13.7819 0.000518322 14.0002 0.218823 14.0002 0.488097V3.74408C14.0001 4.01335 13.7818 4.23166 13.5125 4.23166Z" fill="#78B833"/>
<path d="M4.21208 4.9021L0.975401 1.66517V3.74407C0.975401 4.01334 0.757161 4.23165 0.487822 4.23165C0.218484 4.23165 0.000244141 4.01334 0.000244141 3.74407V0.487958C0.000244141 0.218685 0.218484 0.000379562 0.487822 0.000379562H3.74381C4.01308 0.000379562 4.23138 0.218685 4.23138 0.487958C4.23138 0.757231 4.01314 0.975536 3.74381 0.975536H1.6649L4.90164 4.2126C5.09206 4.40302 5.09206 4.71175 4.90158 4.90217C4.71129 5.09252 4.40256 5.09252 4.21208 4.9021Z" fill="#78B833"/>
<path d="M13.5123 14H10.2562C9.98686 14 9.76862 13.7817 9.76862 13.5124C9.76862 13.2431 9.98686 13.0248 10.2562 13.0248H12.3352L9.19529 9.88477C9.00488 9.69436 9.00488 9.38562 9.19536 9.19521C9.29053 9.10003 9.41535 9.05244 9.54011 9.05244C9.66486 9.05244 9.78968 9.1001 9.88492 9.19527L13.0248 12.3353V10.2563C13.0248 9.98703 13.243 9.76873 13.5124 9.76873C13.7817 9.76873 14 9.98703 14 10.2563V13.5124C13.9999 13.7818 13.7816 14 13.5123 14Z" fill="#78B833"/>
</g>
<defs>
<clipPath id="clip0_1010_4339">
<rect width="14" height="14" fill="white" transform="matrix(1 0 0 -1 0 14)"/>
</clipPath>
</defs>
</svg>
