<svg width="16" height="16" viewBox="0 0 16 16" fill="none" xmlns="http://www.w3.org/2000/svg">
<g clip-path="url(#clip0_1010_4376)">
<path d="M15.8626 0.137297C15.6796 -0.0457655 15.3827 -0.0457655 15.1997 0.137297L13.8344 1.50261C13.7504 1.46261 13.6619 1.43039 13.5694 1.40729L9.32657 0.359077C8.85013 0.239984 8.33838 0.381702 7.9911 0.728983L0.41121 8.29641C-0.13707 8.84472 -0.13707 9.7369 0.41121 10.2852L5.71473 15.5887C6.26304 16.137 7.15523 16.1371 7.70357 15.5887L15.271 8.00881C15.6183 7.66153 15.76 7.14978 15.6409 6.67332L14.5927 2.43051C14.5696 2.33807 14.5374 2.24948 14.4974 2.16554L15.8627 0.800233C16.0457 0.617171 16.0457 0.320359 15.8626 0.137297ZM14.7313 6.90075C14.771 7.05956 14.7237 7.23013 14.608 7.34591L7.04057 14.9258C6.85779 15.1086 6.56039 15.1086 6.37761 14.9258L1.07412 9.62228C0.891334 9.4395 0.891334 9.14209 1.07412 8.95931L8.65404 1.39192C8.74269 1.30326 8.86351 1.25479 8.98657 1.25479C9.02419 1.25479 9.06204 1.25933 9.09919 1.26861L13.0845 2.25245L11.9556 3.38135C11.4329 3.13242 10.7873 3.22373 10.3553 3.65579C9.80694 4.20413 9.80694 5.09629 10.3553 5.64463C10.6294 5.91879 10.9896 6.05588 11.3497 6.05588C11.7098 6.05588 12.0699 5.91882 12.3441 5.64463C12.7762 5.21251 12.8675 4.56694 12.6185 4.04429L13.7474 2.91539L14.7313 6.90075ZM11.6812 4.98172C11.4984 5.16447 11.201 5.16451 11.0182 4.98172C10.8355 4.79897 10.8355 4.50154 11.0182 4.31879C11.1096 4.22738 11.2296 4.18173 11.3497 4.18173C11.4697 4.18173 11.5898 4.22741 11.6811 4.31876L11.6811 4.31879L11.6812 4.31882C11.8639 4.50157 11.8639 4.79897 11.6812 4.98172Z" fill="#78B833"/>
<path d="M7.70352 5.64463C7.15521 5.09632 6.26302 5.09632 5.71468 5.64463C5.1664 6.19294 5.1664 7.08513 5.71468 7.63347C6.26299 8.18178 7.15521 8.18178 7.70352 7.63347C8.25186 7.08513 8.25186 6.19297 7.70352 5.64463ZM7.04061 6.9705C6.85783 7.15329 6.56043 7.15329 6.37768 6.9705C6.19493 6.78772 6.19486 6.49032 6.37764 6.30757C6.56043 6.12482 6.8578 6.12479 7.04061 6.30757C7.22336 6.49032 7.22336 6.78772 7.04061 6.9705Z" fill="#78B833"/>
<path d="M8.36637 10.2853C7.81678 9.73567 6.92725 9.73561 6.37757 10.2853C5.82922 10.8336 5.82922 11.7258 6.37757 12.2741C6.92719 12.8237 7.81672 12.8238 8.36637 12.2741C8.91472 11.7258 8.91472 10.8336 8.36637 10.2853ZM7.70344 11.6112C7.52028 11.7944 7.22369 11.7944 7.0405 11.6112C6.85775 11.4284 6.85775 11.131 7.0405 10.9482C7.22369 10.765 7.52025 10.765 7.70344 10.9482C7.88619 11.131 7.88619 11.4284 7.70344 11.6112Z" fill="#78B833"/>
<path d="M10.4898 8.57624C10.4612 8.31893 10.2294 8.13349 9.97211 8.16209L4.00569 8.82503C3.74838 8.85362 3.56294 9.08537 3.59153 9.34271C3.61819 9.58243 3.82113 9.75977 4.05687 9.75977C4.07416 9.75977 4.09166 9.7588 4.10922 9.75687L10.0757 9.09393C10.333 9.06531 10.5184 8.83356 10.4898 8.57624Z" fill="#78B833"/>
</g>
<defs>
<clipPath id="clip0_1010_4376">
<rect width="16" height="16" fill="white"/>
</clipPath>
</defs>
</svg>
