<svg width="18" height="18" viewBox="0 0 18 18" fill="none" xmlns="http://www.w3.org/2000/svg">
<g id="disruption_9606383 1">
<g id="_x30_5">
<path id="Vector" d="M16.5641 8.49683L12.0641 6.24683C11.9059 6.16772 11.7191 6.16772 11.5609 6.24683L7.06091 8.49683C6.8703 8.59213 6.75 8.78687 6.75 9V14.0625C6.75 14.2756 6.8703 14.4704 7.06091 14.5657L11.5609 16.8157C11.64 16.8552 11.7263 16.875 11.8125 16.875C11.8987 16.875 11.985 16.8552 12.0641 16.8157L16.5641 14.5657C16.7547 14.4704 16.875 14.2756 16.875 14.0625V9C16.875 8.78687 16.7547 8.59213 16.5641 8.49683ZM11.8125 7.37897L15.0546 9L11.8125 10.621L8.57043 9L11.8125 7.37897ZM7.875 9.91022L11.25 11.5977V15.4023L7.875 13.7148V9.91022ZM12.375 15.4023V11.5977L15.75 9.91022V13.7148L12.375 15.4023Z" fill="#78B833"/>
<path id="Vector_2" d="M6.18751 2.8125H5.06251C4.89387 2.8125 4.73457 2.88803 4.62745 3.01849C4.52088 3.14868 4.47804 3.32007 4.511 3.48541L5.0735 6.29791C5.12623 6.56076 5.35694 6.75 5.62501 6.75C5.89308 6.75 6.12379 6.56076 6.17652 6.29791L6.73902 3.48541C6.77198 3.32007 6.72914 3.14868 6.62257 3.01849C6.51545 2.88803 6.35615 2.8125 6.18751 2.8125Z" fill="#78B833"/>
<path id="Vector_3" d="M5.625 8.4375C5.93566 8.4375 6.1875 8.18566 6.1875 7.875C6.1875 7.56434 5.93566 7.3125 5.625 7.3125C5.31434 7.3125 5.0625 7.56434 5.0625 7.875C5.0625 8.18566 5.31434 8.4375 5.625 8.4375Z" fill="#78B833"/>
<path id="Vector_4" d="M5.625 9C3.76392 9 2.25 7.48608 2.25 5.625C2.25 3.76392 3.76392 2.25 5.625 2.25C7.48608 2.25 9 3.76392 9 5.625C9 5.78595 8.98846 5.94827 8.96539 6.1073C8.92145 6.41492 9.13513 6.70001 9.44275 6.74396C9.75092 6.7879 10.0349 6.57477 10.0794 6.26715C10.1096 6.05539 10.125 5.83923 10.125 5.625C10.125 3.14374 8.10626 1.125 5.625 1.125C3.14374 1.125 1.125 3.14374 1.125 5.625C1.125 8.10626 3.14374 10.125 5.625 10.125C5.93591 10.125 6.1875 9.87314 6.1875 9.5625C6.1875 9.25186 5.93591 9 5.625 9Z" fill="#78B833"/>
</g>
</g>
</svg>
