<svg width="137" height="46" viewBox="0 0 137 46" fill="none" xmlns="http://www.w3.org/2000/svg">
<path d="M119.66 4H12.0752C6.95955 4 2.8125 8.0517 2.8125 13.0497V32.8848C2.8125 37.8829 6.95955 41.9345 12.0752 41.9345H119.66C124.775 41.9345 128.923 37.8829 128.923 32.8848V13.0497C128.923 8.0517 124.775 4 119.66 4Z" fill="#E6E6E6"/>
<path d="M52.4813 14C53.8763 14 54.7014 14.8503 54.7014 16.2964C54.7014 17.7425 53.8824 18.5968 52.4813 18.5968H50.8999V14H52.4813ZM51.4867 18.0802H52.4421C53.5083 18.0802 54.1018 17.4436 54.1018 16.303C54.1018 15.1624 53.5117 14.5159 52.4421 14.5159H51.4867V18.0802Z" fill="#5C5C5C"/>
<path d="M55.5078 16.9384C55.5078 15.8828 56.1405 15.2231 57.0797 15.2231C58.019 15.2231 58.6483 15.8795 58.6483 16.9384C58.6483 17.9972 58.0156 18.6536 57.0797 18.6536C56.1439 18.6536 55.5078 17.9939 55.5078 16.9384ZM58.0737 16.9384C58.0737 16.1579 57.682 15.712 57.0824 15.712C56.4828 15.712 56.0851 16.1599 56.0851 16.9384C56.0851 17.7168 56.4795 18.1647 57.0797 18.1647C57.68 18.1647 58.0689 17.7208 58.0689 16.9384H58.0737Z" fill="#5C5C5C"/>
<path d="M62.9205 18.5967H62.3432L61.5802 16.0324H61.5673L60.8043 18.5967H60.2277L59.2783 15.2837H59.8428L60.518 17.9786H60.5309L61.2972 15.2837H61.8448L62.6146 17.9786H62.6274L63.3027 15.2837H63.8631L62.9205 18.5967Z" fill="#5C5C5C"/>
<path d="M64.6626 15.2836H65.1974V15.8114H65.2102C65.3993 15.4552 65.7612 15.2256 66.2865 15.2256C67.0293 15.2256 67.46 15.694 67.46 16.4454V18.596H66.8929V16.5423C66.8929 16.0073 66.6349 15.7144 66.1137 15.7144C65.5789 15.7144 65.2298 16.0839 65.2298 16.6446V18.594H64.6626V15.2836Z" fill="#5C5C5C"/>
<path d="M68.5439 14H69.1111V18.5968H68.5439V14Z" fill="#5C5C5C"/>
<path d="M70.0449 16.9384C70.0449 15.8828 70.6776 15.2231 71.6162 15.2231C72.5547 15.2231 73.1847 15.8795 73.1847 16.9384C73.1847 17.9972 72.552 18.6536 71.6162 18.6536C70.6803 18.6536 70.0449 17.9939 70.0449 16.9384ZM72.6108 16.9384C72.6108 16.1579 72.2198 15.712 71.6195 15.712C71.0193 15.712 70.6256 16.1579 70.6256 16.9384C70.6256 17.7188 71.0199 18.1647 71.6195 18.1647C72.2191 18.1647 72.6074 17.7208 72.6074 16.9384H72.6108Z" fill="#5C5C5C"/>
<path d="M73.9521 17.66C73.9521 17.0933 74.3985 16.7364 75.1811 16.6916L76.1527 16.6375V16.3604C76.1527 15.956 75.8786 15.7139 75.41 15.7139C74.9731 15.7139 74.6989 15.9118 74.6274 16.2416H74.0798C74.1189 15.6684 74.6199 15.229 75.4228 15.229C76.2256 15.229 76.7206 15.6492 76.7206 16.3089V18.5994H76.1804V18.0288H76.1676C76.0607 18.2195 75.9031 18.3786 75.7114 18.4891C75.5197 18.5997 75.301 18.6576 75.0784 18.6568C74.4052 18.6535 73.9521 18.2577 73.9521 17.66ZM76.1527 17.3381V17.0702L75.2466 17.1243C74.7894 17.1527 74.5288 17.3506 74.5288 17.6626C74.5288 17.9747 74.7989 18.1851 75.204 18.1851C75.7415 18.1825 76.1527 17.8163 76.1527 17.3381Z" fill="#5C5C5C"/>
<path d="M77.6079 16.9383C77.6079 15.8999 78.192 15.2231 79.0461 15.2231C79.5316 15.2231 79.9239 15.4553 80.1265 15.8168H80.1393V14H80.7072V18.5968H80.167V18.036H80.1569C80.05 18.2273 79.8912 18.3862 79.6981 18.4952C79.5049 18.6043 79.2847 18.6593 79.0617 18.6542C78.1947 18.6535 77.6079 17.9786 77.6079 16.9383ZM78.1886 16.9383C78.1886 17.6897 78.5667 18.1647 79.1663 18.1647C79.7504 18.1647 80.1413 17.6804 80.1413 16.9383C80.1413 16.1961 79.7504 15.7119 79.1663 15.7119C78.5667 15.7139 78.1906 16.1915 78.1906 16.9383H78.1886Z" fill="#5C5C5C"/>
<path d="M83.3428 16.9384C83.3428 15.8828 83.9748 15.2231 84.914 15.2231C85.8532 15.2231 86.4826 15.8795 86.4826 16.9384C86.4826 17.9972 85.8499 18.6536 84.914 18.6536C83.9782 18.6536 83.3428 17.9939 83.3428 16.9384ZM85.9086 16.9384C85.9086 16.1579 85.5177 15.712 84.9174 15.712C84.3171 15.712 83.9228 16.1579 83.9228 16.9384C83.9228 17.7188 84.3178 18.1647 84.9174 18.1647C85.517 18.1647 85.9052 17.7208 85.9052 16.9384H85.9086Z" fill="#5C5C5C"/>
<path d="M87.3862 15.2836H87.921V15.8114H87.9338C88.1229 15.4552 88.4848 15.2256 89.0101 15.2256C89.7529 15.2256 90.1837 15.694 90.1837 16.4454V18.596H89.6165V16.5423C89.6165 16.0073 89.3586 15.7144 88.8373 15.7144C88.3025 15.7144 87.9534 16.0839 87.9534 16.6446V18.594H87.3862V15.2836Z" fill="#5C5C5C"/>
<path d="M93.6909 14.4844V15.2839H94.3499V15.7391H93.6909V17.7077C93.6909 18.0105 93.8219 18.1477 94.1116 18.1477C94.1901 18.1463 94.2685 18.141 94.3465 18.1318V18.5969C94.228 18.6156 94.108 18.624 93.988 18.622C93.3654 18.622 93.1237 18.3739 93.1237 17.7367V15.7391H92.6187V15.2839H93.1237V14.4844H93.6909Z" fill="#5C5C5C"/>
<path d="M95.3164 14H95.8836V15.8122H95.8971C96.0862 15.4428 96.4575 15.2264 96.9727 15.2264C97.7155 15.2264 98.1658 15.7172 98.1658 16.4561V18.5968H97.5987V16.5576C97.5987 16.0299 97.3286 15.7172 96.7965 15.7172C96.2327 15.7172 95.8836 16.0926 95.8836 16.6658V18.5968H95.3164V14Z" fill="#5C5C5C"/>
<path d="M102.026 17.6476C101.928 18.2275 101.355 18.6543 100.614 18.6543C99.6424 18.6543 99.0522 17.9947 99.0522 16.953C99.0522 15.9239 99.6525 15.2266 100.588 15.2266C101.505 15.2266 102.068 15.8764 102.068 16.8798V17.0902H99.6377V17.1219C99.6377 17.7558 100.019 18.1728 100.629 18.1728C101.059 18.1728 101.372 17.9597 101.47 17.645L102.026 17.6476ZM99.6397 16.6581H101.486C101.473 16.104 101.117 15.7088 100.582 15.7088C100.048 15.7088 99.6768 16.1059 99.641 16.6568L99.6397 16.6581Z" fill="#5C5C5C"/>
<path d="M53.8205 22.2817H55.2884L58.466 30.8321H57.0413L56.2405 28.5231H52.8698L52.0595 30.8321H50.6348L53.8205 22.2817ZM53.2323 27.4544H55.8704L54.5666 23.6974H54.5423L53.2323 27.4544Z" fill="#5C5C5C"/>
<path d="M59.8921 24.5969H61.202V25.6689H61.2324C61.6146 24.9287 62.3182 24.4814 63.2277 24.4814C64.8536 24.4814 65.8962 25.7256 65.8962 27.714V27.7199C65.8962 29.7049 64.8475 30.9524 63.2459 30.9524C62.3425 30.9524 61.6085 30.5025 61.2324 29.7795H61.202V32.9031H59.8921V24.5969ZM64.5619 27.7192V27.7133C64.5619 26.386 63.913 25.5746 62.8881 25.5746C61.8935 25.5746 61.1959 26.4157 61.1959 27.7133V27.7192C61.1959 29.0109 61.8995 29.8527 62.8881 29.8527C63.9211 29.8527 64.564 29.0347 64.564 27.7192H64.5619Z" fill="#5C5C5C"/>
<path d="M67.5327 24.5969H68.8426V25.6689H68.873C69.2552 24.9287 69.9588 24.4814 70.8683 24.4814C72.4936 24.4814 73.5368 25.7256 73.5368 27.714V27.7199C73.5368 29.7049 72.4875 30.9524 70.8865 30.9524C69.9824 30.9524 69.2491 30.5025 68.873 29.7795H68.8426V32.9031H67.5327V24.5969ZM72.2026 27.7192V27.7133C72.2026 26.386 71.5537 25.5746 70.5287 25.5746C69.5341 25.5746 68.8366 26.4157 68.8366 27.7133V27.7192C68.8366 29.0109 69.5402 29.8527 70.5287 29.8527C71.5597 29.8527 72.2026 29.0347 72.2026 27.7192Z" fill="#5C5C5C"/>
<path d="M78.0783 28.5541L78.0723 28.4657H79.3943L79.4065 28.5429C79.528 29.3306 80.3349 29.8227 81.5051 29.8227C82.6753 29.8227 83.4153 29.3068 83.4153 28.5073V28.5013C83.4153 27.8139 82.9366 27.4405 81.7779 27.1918L80.8258 26.9939C79.1094 26.6383 78.2789 25.8685 78.2789 24.6005V24.5946C78.285 23.1367 79.601 22.1353 81.4524 22.1353C83.2755 22.1353 84.5274 23.107 84.6185 24.5412L84.6246 24.6414H83.3025L83.2965 24.559C83.1749 23.7673 82.4713 23.2851 81.4342 23.2851C80.3491 23.291 79.6577 23.7944 79.6577 24.5385V24.5445C79.6577 25.1844 80.1547 25.5756 81.2465 25.8065L82.2046 26.0044C84.0122 26.3778 84.788 27.0949 84.788 28.4162V28.4222C84.788 29.9804 83.5267 30.9699 81.4524 30.9699C79.4855 30.9719 78.1904 30.0595 78.0783 28.5541Z" fill="#5C5C5C"/>
<path d="M86.8389 29.189V25.6154H85.9233V24.5968H86.8389V22.9727H88.1793V24.5968H89.3744V25.6154H88.1793V29.1118C88.1793 29.7458 88.471 29.9351 89.0226 29.9351C89.1403 29.9346 89.2578 29.9266 89.3744 29.9113V30.9009C89.1537 30.9353 88.9307 30.9532 88.7073 30.9543C87.446 30.9543 86.8389 30.4332 86.8389 29.189Z" fill="#5C5C5C"/>
<path d="M90.6382 27.7132V27.7013C90.6382 25.7103 91.8448 24.478 93.6585 24.478C95.4721 24.478 96.6916 25.7044 96.6916 27.7013V27.7132C96.6916 29.722 95.491 30.9543 93.6652 30.9543C91.8394 30.9543 90.6382 29.716 90.6382 27.7132ZM95.3506 27.7132V27.7013C95.3506 26.3384 94.6834 25.5507 93.6585 25.5507C92.6517 25.5507 91.9785 26.3384 91.9785 27.7013V27.7132C91.9785 29.0939 92.6456 29.8816 93.6706 29.8816C94.6956 29.8816 95.3506 29.088 95.3506 27.7132Z" fill="#5C5C5C"/>
<path d="M98.3252 24.597H99.6351V25.663H99.6655C99.8721 24.9374 100.408 24.4756 101.133 24.4756C101.286 24.4779 101.438 24.4938 101.588 24.5231V25.7138C101.485 25.6723 101.254 25.6426 101 25.6426C100.157 25.6426 99.6351 26.1822 99.6351 27.1124V30.8278H98.3252V24.597Z" fill="#5C5C5C"/>
<path d="M102.464 27.7369V27.731C102.464 25.7816 103.616 24.478 105.406 24.478C107.195 24.478 108.292 25.7315 108.292 27.6063V28.0391H103.774C103.799 29.2186 104.46 29.9054 105.503 29.9054C106.279 29.9054 106.795 29.5148 106.958 29.0477L106.976 29.0002H108.22L108.208 29.0662C108.001 30.0558 107.019 30.9562 105.472 30.9562C103.598 30.9543 102.464 29.7041 102.464 27.7369ZM103.793 27.1326H106.994C106.886 26.054 106.267 25.5269 105.412 25.5269C104.557 25.5269 103.908 26.0897 103.793 27.1326Z" fill="#5C5C5C"/>
<path d="M40.524 20.9558C39.7079 21.5109 39.1527 22.0681 38.8583 22.6275C38.564 23.1897 38.413 23.8129 38.418 24.4443C38.4121 24.9284 38.5007 25.4091 38.6793 25.8607C38.862 26.3014 39.1125 26.7123 39.4221 27.0792C39.7408 27.464 40.2738 27.8459 41.021 28.225C40.732 29.0523 40.2837 29.8965 39.676 30.7576C39.0683 31.6187 38.5168 32.2294 38.0217 32.5896C37.5288 32.9498 37.0581 33.1299 36.6098 33.1299C36.2497 33.1299 35.7667 33.018 35.1608 32.7941L34.8772 32.6919L34.414 32.5019C34.0595 32.4013 33.6919 32.3522 33.3228 32.3561C32.9145 32.3561 32.4565 32.444 31.9487 32.6199L31.5902 32.7519L31.1418 32.9274C30.7996 33.0607 30.4347 33.1301 30.0662 33.1319C29.3095 33.1319 28.4977 32.6136 27.6307 31.577C26.7863 30.5789 26.1217 29.4479 25.6651 28.2323C25.2281 27.0756 25.0029 25.8528 25 24.6198C25 23.0532 25.4558 21.7492 26.3673 20.7078C27.2789 19.6664 28.5168 19.1459 30.0811 19.1463C30.6297 19.1424 31.1734 19.2465 31.68 19.4524L32.023 19.5843L32.3815 19.7308C32.7002 19.8574 32.9544 19.9206 33.1439 19.9201C33.4306 19.9186 33.7144 19.8643 33.9805 19.7598L34.4585 19.5843L34.8022 19.4524C35.3959 19.242 36.0236 19.1383 36.655 19.1463C38.258 19.1463 39.5477 19.7495 40.524 20.9558ZM36.7293 14C36.7496 14.2144 36.7597 14.3793 36.7597 14.4961C36.7597 15.0995 36.5796 15.7225 36.2195 16.365C35.8917 16.974 35.4078 17.4896 34.815 17.8612C34.2432 18.2144 33.5793 18.3992 32.9028 18.3936C32.8784 18.2243 32.8635 18.0538 32.8582 17.883C32.8582 17.3671 33.0158 16.8246 33.3309 16.2555C33.6446 15.6873 34.0804 15.1922 34.6084 14.8042C35.1421 14.407 35.7687 14.146 36.4315 14.0449L36.7293 14Z" fill="#5C5C5C"/>
</svg>
