<svg width="35" height="26" viewBox="0 0 35 26" fill="none" xmlns="http://www.w3.org/2000/svg">
<path d="M8.77016 24.9943H1.00583V10.4722C1.00583 10.1943 0.780657 9.96924 0.502914 9.96924C0.225172 9.96924 0 10.1943 0 10.4722V25.4972C0 25.775 0.225172 26.0001 0.502914 26.0001H8.77016C9.0479 26.0001 9.27307 25.775 9.27307 25.4972C9.27307 25.2194 9.0479 24.9943 8.77016 24.9943Z" fill="black"/>
<path d="M4.37316 23.8177H6.4561C6.73384 23.8177 6.95901 23.5926 6.95901 23.3148V19.3023H8.07347C8.27691 19.3023 8.46024 19.1798 8.53809 18.9918C8.61594 18.8038 8.5729 18.5876 8.42906 18.4437L5.77025 15.7849C5.57385 15.5886 5.2554 15.5886 5.05907 15.7849L2.40026 18.4437C2.25643 18.5876 2.21338 18.8038 2.29123 18.9918C2.36908 19.1798 2.55247 19.3023 2.75585 19.3023H3.87031V23.3148C3.87024 23.5926 4.09542 23.8177 4.37316 23.8177ZM5.41459 16.8518L6.85923 18.2964H6.45603C6.17829 18.2964 5.95311 18.5215 5.95311 18.7994V22.8119H4.87607V18.7994C4.87607 18.5215 4.6509 18.2964 4.37316 18.2964H3.96996L5.41459 16.8518Z" fill="black"/>
<path d="M12.5095 23.3375C12.5095 23.6153 12.7347 23.8404 13.0124 23.8404H17.1782C17.456 23.8404 17.6812 23.6153 17.6812 23.3375V21.2085C17.6812 20.9307 17.4561 20.7056 17.1782 20.7056H13.0124C12.7347 20.7056 12.5095 20.9307 12.5095 21.2085V23.3375ZM13.5154 21.7114H16.6753V22.8346H13.5154V21.7114Z" fill="black"/>
<path d="M13.0124 19.6518H17.1782C17.456 19.6518 17.6812 19.4267 17.6812 19.1489C17.6812 18.8711 17.4561 18.646 17.1782 18.646H13.0124C12.7347 18.646 12.5095 18.8711 12.5095 19.1489C12.5095 19.4267 12.7347 19.6518 13.0124 19.6518Z" fill="black"/>
<path d="M33.828 0H25.6258C25.348 0 25.1229 0.225105 25.1229 0.502915C25.1229 0.780725 25.348 1.00583 25.6258 1.00583H33.3251V12.4971H15.585V1.00583H23.4338C23.7116 1.00583 23.9367 0.780725 23.9367 0.502915C23.9367 0.225105 23.7116 0 23.4338 0H15.0821C14.8043 0 14.5791 0.225105 14.5791 0.502915V4.16547H0.502914C0.225171 4.16547 0 4.39058 0 4.66839V8.27998C0 8.55779 0.225171 8.7829 0.502914 8.7829C0.780657 8.7829 1.00583 8.55779 1.00583 8.27998V5.1713H7.28683V10.2283C7.35784 10.6403 7.59535 10.7927 7.99942 10.6853L9.87462 9.82507L11.7498 10.6853C12.0538 10.825 12.4624 10.6002 12.4624 10.2283V5.1713H14.579V13C14.579 13.2778 14.8042 13.5029 15.0819 13.5029H18.7438V24.9942H10.9615C10.6838 24.9942 10.4586 25.2193 10.4586 25.4971C10.4586 25.7749 10.6838 26 10.9615 26H19.2469C19.5247 26 19.7498 25.7749 19.7498 25.4971V13.5029H33.828C34.1058 13.5029 34.3309 13.2778 34.3309 13V0.502915C34.3309 0.225105 34.1058 0 33.828 0ZM11.4567 9.44426L10.0844 8.81468C9.94463 8.75359 9.80482 8.75359 9.66501 8.81468L8.29272 9.44426V5.17137H11.4568V9.44426H11.4567Z" fill="black"/>
<path d="M18.7447 2.58624C18.7443 3.45695 18.0356 4.16546 17.1648 4.16546C16.887 4.16546 16.6619 4.39056 16.6619 4.66837V8.83411C16.6619 9.11192 16.887 9.33703 17.1648 9.33703C18.036 9.33703 18.7447 10.0458 18.7447 10.917C18.7447 11.1949 18.9698 11.42 19.2476 11.42H29.6621C29.9399 11.42 30.165 11.1949 30.165 10.917C30.165 10.0459 30.8738 9.33703 31.745 9.33703C32.0228 9.33703 32.2479 9.11192 32.2479 8.83411V4.66837C32.2479 4.39056 32.0228 4.16546 31.745 4.16546C30.8738 4.16546 30.165 3.45668 30.165 2.58543C30.165 2.30762 29.9399 2.08252 29.6621 2.08252H19.2476C18.97 2.08252 18.7449 2.30856 18.7447 2.58624ZM29.2082 3.08835C29.4107 4.11154 30.2188 4.91969 31.242 5.12213V8.38028C30.2188 8.58279 29.4107 9.39087 29.2082 10.4141H19.7015C19.499 9.39087 18.6909 8.58272 17.6677 8.38028V5.12213C18.6905 4.91956 19.4986 4.11181 19.7013 3.08835H29.2082Z" fill="black"/>
<path d="M24.455 9.31933C25.8759 9.31933 27.032 8.16336 27.032 6.74239C27.032 5.32156 25.876 4.16553 24.455 4.16553C23.0342 4.16553 21.8782 5.32149 21.8782 6.74239C21.8782 8.16336 23.0341 9.31933 24.455 9.31933ZM24.455 5.17142C25.3213 5.17142 26.0261 5.87617 26.0261 6.74246C26.0261 7.60875 25.3213 8.31357 24.455 8.31357C23.5888 8.31357 22.884 7.60875 22.884 6.74246C22.884 5.87617 23.5888 5.17142 24.455 5.17142Z" fill="black"/>
<path d="M20.8276 18.2232C20.8276 18.501 21.0527 18.7261 21.3306 18.7261H31.745C32.246 18.5983 32.3645 18.3121 32.1006 17.8675L30.0177 15.7847C29.3064 15.5476 29.0694 15.7847 29.3066 16.4959L30.5309 17.7202H21.3306C21.0527 17.7203 20.8276 17.9455 20.8276 18.2232Z" fill="black"/>
<path d="M31.745 19.8032H21.3305C20.8296 19.931 20.7111 20.2172 20.9749 20.6618L23.0578 22.7447C23.4344 23.1211 24.3187 22.5832 23.7691 22.0335L22.5446 20.8091H31.745C32.3953 20.8091 32.3953 19.8032 31.745 19.8032Z" fill="black"/>
</svg>
